<svg xmlns="http://www.w3.org/2000/svg" viewBox="0 0 860 460" font-family="Segoe UI,Arial,sans-serif">
<rect width="860" height="460" rx="12" fill="#131722"/>
<line x1="26" y1="58" x2="834" y2="58" stroke="#1b2230" stroke-width="1"/>
<line x1="26" y1="98" x2="834" y2="98" stroke="#1b2230" stroke-width="1"/>
<line x1="26" y1="138" x2="834" y2="138" stroke="#1b2230" stroke-width="1"/>
<line x1="26" y1="178" x2="834" y2="178" stroke="#1b2230" stroke-width="1"/>
<line x1="26" y1="218" x2="834" y2="218" stroke="#1b2230" stroke-width="1"/>
<line x1="26" y1="258" x2="834" y2="258" stroke="#1b2230" stroke-width="1"/>
<line x1="26" y1="298" x2="834" y2="298" stroke="#1b2230" stroke-width="1"/>
<line x1="26" y1="338" x2="834" y2="338" stroke="#1b2230" stroke-width="1"/>
<line x1="26" y1="378" x2="834" y2="378" stroke="#1b2230" stroke-width="1"/>
<text x="26" y="28" fill="#d1d4dc" font-size="19" font-weight="700">At a Level — the 3-way fork</text>
<text x="26" y="47" fill="#787b86" font-size="12.5">Price arrives at a mapped level. Three outcomes — read which one, then act.</text>
<line x1="26.0" y1="217.0" x2="834.0" y2="217.0" stroke="#f0b90b" stroke-width="1.6" stroke-dasharray="True" opacity="1"></line>
<text x="29.0" y="212.0" fill="#f0b90b" font-size="11" font-weight="600" text-anchor="start" opacity="1">the level</text>
<path d="M702.7,223.5 L763.3,321.2" stroke="#f23645" stroke-width="2.6" fill="none" stroke-dasharray="" marker-end="url(#bar_f23645)" opacity="1"></path>
<text x="733.0" y="288.3" fill="#f23645" font-size="10.5" font-weight="600" text-anchor="middle" opacity="1">HOLD → reject down</text>
<path d="M702.7,210.5 L763.3,125.8" stroke="#089981" stroke-width="2.6" fill="none" stroke-dasharray="" marker-end="url(#bar_089981)" opacity="1"></path>
<text x="733.0" y="160.1" fill="#089981" font-size="10.5" font-weight="600" text-anchor="middle" opacity="1">BREAK → close through</text>
<path d="M702.7,217.0 L773.4,217.0" stroke="#787b86" stroke-width="2.2" fill="none" stroke-dasharray="5 4" marker-end="url(#bar_787b86)" opacity="1"></path>
<text x="738.1" y="209.0" fill="#787b86" font-size="10.5" font-weight="600" text-anchor="middle" opacity="1">WAIT → inside / unclear</text>
<defs>
<marker id="bar_089981" markerWidth="9" markerHeight="9" refX="6" refY="4.5" orient="auto"><path d="M0,0 L9,4.5 L0,9 z" fill="#089981"/></marker>
<marker id="bar_f23645" markerWidth="9" markerHeight="9" refX="6" refY="4.5" orient="auto"><path d="M0,0 L9,4.5 L0,9 z" fill="#f23645"/></marker>
<marker id="bar_787b86" markerWidth="9" markerHeight="9" refX="6" refY="4.5" orient="auto"><path d="M0,0 L9,4.5 L0,9 z" fill="#787b86"/></marker>
</defs>
<text x="430.0" y="99.3" fill="#d1d4dc" font-size="11.5" font-weight="600" text-anchor="middle" opacity="1">① HOLD = fade (reversal)   ② BREAK = go with it   ③ WAIT = no edge yet</text>
<line x1="96.7" y1="308.2" x2="96.7" y2="360.3" stroke="#b2b5be" stroke-width="1.5" opacity="1"></line>
<rect x="83.7" y="321.2" width="26.0" height="26.1" rx="1.5" fill="#089981" stroke="#089981" opacity="1"></rect>
<line x1="197.7" y1="282.1" x2="197.7" y2="334.2" stroke="#b2b5be" stroke-width="1.5" opacity="1"></line>
<rect x="184.7" y="295.2" width="26.0" height="26.1" rx="1.5" fill="#089981" stroke="#089981" opacity="1"></rect>
<line x1="298.7" y1="256.1" x2="298.7" y2="308.2" stroke="#b2b5be" stroke-width="1.5" opacity="1"></line>
<rect x="285.7" y="269.1" width="26.0" height="26.1" rx="1.5" fill="#089981" stroke="#089981" opacity="1"></rect>
<line x1="399.7" y1="230.0" x2="399.7" y2="282.1" stroke="#b2b5be" stroke-width="1.5" opacity="1"></line>
<rect x="386.7" y="243.0" width="26.0" height="26.1" rx="1.5" fill="#089981" stroke="#089981" opacity="1"></rect>
<line x1="500.7" y1="217.0" x2="500.7" y2="256.1" stroke="#b2b5be" stroke-width="1.5" opacity="1"></line>
<rect x="487.7" y="230.0" width="26.0" height="13.0" rx="1.5" fill="#089981" stroke="#089981" opacity="1"></rect>
<line x1="601.7" y1="203.9" x2="601.7" y2="243.0" stroke="#b2b5be" stroke-width="1.5" opacity="1"></line>
<rect x="588.7" y="217.0" width="26.0" height="13.0" rx="1.5" fill="#089981" stroke="#089981" opacity="1"></rect>
<line x1="702.7" y1="203.9" x2="702.7" y2="230.0" stroke="#b2b5be" stroke-width="1.5" opacity="1"></line>
<rect x="689.7" y="217.0" width="26.0" height="2.0" rx="1.5" fill="#089981" stroke="#089981" opacity="1"></rect>
<text x="430.0" y="446" fill="#787b86" font-size="12" text-anchor="middle">You do not predict the fork — you let price pick the branch, then take the matching play.</text>
</svg>