<svg xmlns="http://www.w3.org/2000/svg" viewBox="0 0 860 470" font-family="Segoe UI,Arial,sans-serif">
<rect width="860" height="470" rx="12" fill="#131722"/>
<text x="26" y="30" fill="#d1d4dc" font-size="19" font-weight="700">Backtest Parameter Grid</text>
<text x="26" y="49" fill="#787b86" font-size="12.5">Sweep these parameters; judge with these metrics — find the robust region, not the peak</text>
<text x="36.0" y="112.0" fill="#2962ff" font-size="12" font-weight="700">Stop budget (pts)</text>
<rect x="206.0" y="88.0" width="64.0" height="34.0" rx="8" fill="#161d2b" stroke="#2962ff" stroke-width="1.4"/>
<text x="238.0" y="110.0" fill="#d1d4dc" font-size="11" text-anchor="middle">30</text>
<rect x="280.0" y="88.0" width="64.0" height="34.0" rx="8" fill="#161d2b" stroke="#2962ff" stroke-width="1.4"/>
<text x="312.0" y="110.0" fill="#d1d4dc" font-size="11" text-anchor="middle">40</text>
<rect x="354.0" y="88.0" width="64.0" height="34.0" rx="8" fill="#161d2b" stroke="#2962ff" stroke-width="1.4"/>
<text x="386.0" y="110.0" fill="#d1d4dc" font-size="11" text-anchor="middle">50</text>
<rect x="428.0" y="88.0" width="64.0" height="34.0" rx="8" fill="#161d2b" stroke="#2962ff" stroke-width="1.4"/>
<text x="460.0" y="110.0" fill="#d1d4dc" font-size="11" text-anchor="middle">60</text>
<text x="36.0" y="170.0" fill="#26c6da" font-size="12" font-weight="700">R:R target</text>
<rect x="206.0" y="146.0" width="64.0" height="34.0" rx="8" fill="#161d2b" stroke="#26c6da" stroke-width="1.4"/>
<text x="238.0" y="168.0" fill="#d1d4dc" font-size="11" text-anchor="middle">1.5</text>
<rect x="280.0" y="146.0" width="64.0" height="34.0" rx="8" fill="#161d2b" stroke="#26c6da" stroke-width="1.4"/>
<text x="312.0" y="168.0" fill="#d1d4dc" font-size="11" text-anchor="middle">2</text>
<rect x="354.0" y="146.0" width="64.0" height="34.0" rx="8" fill="#161d2b" stroke="#26c6da" stroke-width="1.4"/>
<text x="386.0" y="168.0" fill="#d1d4dc" font-size="11" text-anchor="middle">3</text>
<text x="36.0" y="228.0" fill="#f0b90b" font-size="12" font-weight="700">Confirmation</text>
<rect x="206.0" y="204.0" width="64.0" height="34.0" rx="8" fill="#161d2b" stroke="#f0b90b" stroke-width="1.4"/>
<text x="238.0" y="226.0" fill="#d1d4dc" font-size="11" text-anchor="middle">first-touch</text>
<rect x="280.0" y="204.0" width="64.0" height="34.0" rx="8" fill="#161d2b" stroke="#f0b90b" stroke-width="1.4"/>
<text x="312.0" y="226.0" fill="#d1d4dc" font-size="11" text-anchor="middle">retest</text>
<text x="36.0" y="286.0" fill="#9c27b0" font-size="12" font-weight="700">Regime filter</text>
<rect x="206.0" y="262.0" width="64.0" height="34.0" rx="8" fill="#161d2b" stroke="#9c27b0" stroke-width="1.4"/>
<text x="238.0" y="284.0" fill="#d1d4dc" font-size="11" text-anchor="middle">on</text>
<rect x="280.0" y="262.0" width="64.0" height="34.0" rx="8" fill="#161d2b" stroke="#9c27b0" stroke-width="1.4"/>
<text x="312.0" y="284.0" fill="#d1d4dc" font-size="11" text-anchor="middle">off</text>
<text x="36.0" y="344.0" fill="#089981" font-size="12" font-weight="700">Strike</text>
<rect x="206.0" y="320.0" width="64.0" height="34.0" rx="8" fill="#161d2b" stroke="#089981" stroke-width="1.4"/>
<text x="238.0" y="342.0" fill="#d1d4dc" font-size="11" text-anchor="middle">ATM</text>
<rect x="280.0" y="320.0" width="64.0" height="34.0" rx="8" fill="#161d2b" stroke="#089981" stroke-width="1.4"/>
<text x="312.0" y="342.0" fill="#d1d4dc" font-size="11" text-anchor="middle">1-OTM</text>
<rect x="36.0" y="382.0" width="788.0" height="60.0" rx="8" fill="#1d2330" stroke="#f0b90b" stroke-width="1.4"/>
<text x="50.0" y="406.0" fill="#f0b90b" font-size="12.5" font-weight="700">Judge with</text>
<text x="50.0" y="426.0" fill="#d1d4dc" font-size="11.5">Win-rate · Expectancy (R/trade) · MAE / MFE · Probability-of-Profit (PoP) · max</text>
<text x="50.0" y="440.5" fill="#d1d4dc" font-size="11.5">drawdown</text>
<text x="430.0" y="458" fill="#787b86" font-size="11.5" text-anchor="middle">Prefer a broad plateau of good results over a single fragile peak — that is what survives live.</text>
</svg>