<svg xmlns="http://www.w3.org/2000/svg" viewBox="0 0 860 460" font-family="Segoe UI,Arial,sans-serif">
<rect width="860" height="460" rx="12" fill="#131722"/>
<line x1="26" y1="58" x2="834" y2="58" stroke="#1b2230" stroke-width="1"/>
<line x1="26" y1="98" x2="834" y2="98" stroke="#1b2230" stroke-width="1"/>
<line x1="26" y1="138" x2="834" y2="138" stroke="#1b2230" stroke-width="1"/>
<line x1="26" y1="178" x2="834" y2="178" stroke="#1b2230" stroke-width="1"/>
<line x1="26" y1="218" x2="834" y2="218" stroke="#1b2230" stroke-width="1"/>
<line x1="26" y1="258" x2="834" y2="258" stroke="#1b2230" stroke-width="1"/>
<line x1="26" y1="298" x2="834" y2="298" stroke="#1b2230" stroke-width="1"/>
<text x="26" y="28" fill="#d1d4dc" font-size="19" font-weight="700">Footprint Read — absorption &amp; imbalance</text>
<text x="26" y="47" fill="#787b86" font-size="12.5">Price keeps ticking up but delta stalls = sellers absorbing the aggressive buyers</text>
<line x1="26.0" y1="79.5" x2="834.0" y2="79.5" stroke="#f0b90b" stroke-width="1.6" stroke-dasharray="True" opacity="1"></line>
<text x="29.0" y="74.5" fill="#f0b90b" font-size="11" font-weight="600" text-anchor="start" opacity="1">price still making highs</text>
<text x="430.0" y="83.8" fill="#787b86" font-size="10.5" font-weight="500" text-anchor="middle" opacity="1">bid/ask imbalance: aggressive buys hitting a passive wall = no follow-through</text>
<line x1="106.8" y1="216.3" x2="106.8" y2="294.5" stroke="#b2b5be" stroke-width="1.5" opacity="1"></line>
<rect x="93.8" y="235.9" width="26.0" height="39.1" rx="1.5" fill="#089981" stroke="#089981" opacity="1"></rect>
<line x1="222.2" y1="177.2" x2="222.2" y2="255.4" stroke="#b2b5be" stroke-width="1.5" opacity="1"></line>
<rect x="209.2" y="196.8" width="26.0" height="39.1" rx="1.5" fill="#089981" stroke="#089981" opacity="1"></rect>
<line x1="337.7" y1="138.1" x2="337.7" y2="216.3" stroke="#b2b5be" stroke-width="1.5" opacity="1"></line>
<rect x="324.7" y="157.7" width="26.0" height="39.1" rx="1.5" fill="#089981" stroke="#089981" opacity="1"></rect>
<line x1="453.1" y1="99.0" x2="453.1" y2="177.2" stroke="#b2b5be" stroke-width="1.5" opacity="1"></line>
<rect x="440.1" y="118.6" width="26.0" height="39.1" rx="1.5" fill="#089981" stroke="#089981" opacity="1"></rect>
<line x1="568.5" y1="79.5" x2="568.5" y2="138.1" stroke="#b2b5be" stroke-width="1.5" opacity="1"></line>
<rect x="555.5" y="99.0" width="26.0" height="19.5" rx="1.5" fill="#089981" stroke="#089981" opacity="1"></rect>
<line x1="683.9" y1="79.5" x2="683.9" y2="138.1" stroke="#b2b5be" stroke-width="1.5" opacity="1"></line>
<rect x="670.9" y="99.0" width="26.0" height="19.5" rx="1.5" fill="#f23645" stroke="#f23645" opacity="1"></rect>
<text x="26" y="334" fill="#787b86" font-size="10.5">Cumulative Delta (net aggressive buy−sell)</text>
<line x1="26" y1="372.0" x2="834" y2="372.0" stroke="#1b2230" stroke-width="1"/>
<line x1="106.8" y1="364.3" x2="222.2" y2="354.7" stroke="#089981" stroke-width="2.2"/>
<line x1="222.2" y1="354.7" x2="337.7" y2="345.0" stroke="#089981" stroke-width="2.2"/>
<line x1="337.7" y1="345.0" x2="453.1" y2="343.1" stroke="#089981" stroke-width="2.2"/>
<line x1="453.1" y1="343.1" x2="568.5" y2="347.0" stroke="#f23645" stroke-width="2.2"/>
<line x1="568.5" y1="347.0" x2="683.9" y2="354.7" stroke="#f23645" stroke-width="2.2"/>
<circle cx="106.8" cy="364.3" r="2.2" fill="#089981"/>
<circle cx="222.2" cy="354.7" r="2.2" fill="#089981"/>
<circle cx="337.7" cy="345.0" r="2.2" fill="#089981"/>
<circle cx="453.1" cy="343.1" r="2.2" fill="#089981"/>
<circle cx="568.5" cy="347.0" r="2.2" fill="#089981"/>
<circle cx="683.9" cy="354.7" r="2.2" fill="#089981"/>
<text x="834" y="334" fill="#f23645" font-size="10.5" font-weight="600" text-anchor="end">delta STALLS while price rises = absorption</text>
<text x="430.0" y="446" fill="#787b86" font-size="12" text-anchor="middle">Effort (delta) without result (price acceptance) warns the up-move is being absorbed.</text>
</svg>