<svg xmlns="http://www.w3.org/2000/svg" viewBox="0 0 860 460" font-family="Segoe UI,Arial,sans-serif">
<rect width="860" height="460" rx="12" fill="#131722"/>
<line x1="26" y1="58" x2="834" y2="58" stroke="#1b2230" stroke-width="1"/>
<line x1="26" y1="98" x2="834" y2="98" stroke="#1b2230" stroke-width="1"/>
<line x1="26" y1="138" x2="834" y2="138" stroke="#1b2230" stroke-width="1"/>
<line x1="26" y1="178" x2="834" y2="178" stroke="#1b2230" stroke-width="1"/>
<line x1="26" y1="218" x2="834" y2="218" stroke="#1b2230" stroke-width="1"/>
<line x1="26" y1="258" x2="834" y2="258" stroke="#1b2230" stroke-width="1"/>
<line x1="26" y1="298" x2="834" y2="298" stroke="#1b2230" stroke-width="1"/>
<line x1="26" y1="338" x2="834" y2="338" stroke="#1b2230" stroke-width="1"/>
<line x1="26" y1="378" x2="834" y2="378" stroke="#1b2230" stroke-width="1"/>
<text x="26" y="28" fill="#d1d4dc" font-size="19" font-weight="700">Worked Case — fall, sweep, grind to resistance</text>
<text x="26" y="47" fill="#787b86" font-size="12.5">High → fall to demand → sweep + reaction → slow grind to resistance → about to break</text>
<rect x="307.0" y="318.7" width="105.9" height="54.6" fill="rgba(8,153,129,0.13)" stroke="#089981" stroke-width="1.1" stroke-dasharray="" opacity="1" rx="2"></rect>
<text x="312.0" y="332.7" fill="#089981" font-size="11" font-weight="600" opacity="1">demand: sweep + reaction</text>
<line x1="26.0" y1="195.9" x2="834.0" y2="195.9" stroke="#f0b90b" stroke-width="1.6" stroke-dasharray="True" opacity="1"></line>
<text x="29.0" y="190.9" fill="#f0b90b" font-size="11" font-weight="600" text-anchor="start" opacity="1">resistance (target / break level)</text>
<line x1="26.0" y1="346.0" x2="834.0" y2="346.0" stroke="#26c6da" stroke-width="1.6" stroke-dasharray="True" opacity="1"></line>
<text x="29.0" y="341.0" fill="#26c6da" font-size="11" font-weight="600" text-anchor="start" opacity="1">demand zone</text>
<path d="M386.9,305.1 L710.1,209.5" stroke="#089981" stroke-width="2.2" fill="none" stroke-dasharray="5 4"  opacity="1"></path>
<text x="548.5" y="251.3" fill="#089981" font-size="10.5" font-weight="600" text-anchor="middle" opacity="1">slow grind up</text>
<path d="M386.9,346.0 L440.8,264.1" stroke="#26c6da" stroke-width="2.4" fill="none" stroke-dasharray="" marker-end="url(#bar_26c6da)" opacity="1"></path>
<text x="413.8" y="319.1" fill="#26c6da" font-size="10.5" font-weight="600" text-anchor="middle" opacity="1">① reversal-at-demand</text>
<path d="M710.1,223.2 L764.0,154.9" stroke="#f0b90b" stroke-width="2.6" fill="none" stroke-dasharray="" marker-end="url(#bar_f0b90b)" opacity="1"></path>
<text x="737.0" y="181.0" fill="#f0b90b" font-size="10.5" font-weight="600" text-anchor="middle" opacity="1">② wait-for-breakout</text>
<defs>
<marker id="bar_f0b90b" markerWidth="9" markerHeight="9" refX="6" refY="4.5" orient="auto"><path d="M0,0 L9,4.5 L0,9 z" fill="#f0b90b"/></marker>
<marker id="bar_26c6da" markerWidth="9" markerHeight="9" refX="6" refY="4.5" orient="auto"><path d="M0,0 L9,4.5 L0,9 z" fill="#26c6da"/></marker>
</defs>
<line x1="63.7" y1="86.7" x2="63.7" y2="141.3" stroke="#b2b5be" stroke-width="1.5" opacity="1"></line>
<rect x="50.7" y="114.0" width="26.0" height="13.7" rx="1.5" fill="#f23645" stroke="#f23645" opacity="1"></rect>
<line x1="117.6" y1="114.0" x2="117.6" y2="168.6" stroke="#b2b5be" stroke-width="1.5" opacity="1"></line>
<rect x="104.6" y="127.6" width="26.0" height="27.3" rx="1.5" fill="#f23645" stroke="#f23645" opacity="1"></rect>
<line x1="171.4" y1="141.3" x2="171.4" y2="209.5" stroke="#b2b5be" stroke-width="1.5" opacity="1"></line>
<rect x="158.4" y="154.9" width="26.0" height="41.0" rx="1.5" fill="#f23645" stroke="#f23645" opacity="1"></rect>
<line x1="225.3" y1="182.2" x2="225.3" y2="250.5" stroke="#b2b5be" stroke-width="1.5" opacity="1"></line>
<rect x="212.3" y="195.9" width="26.0" height="41.0" rx="1.5" fill="#f23645" stroke="#f23645" opacity="1"></rect>
<line x1="279.2" y1="223.2" x2="279.2" y2="291.4" stroke="#b2b5be" stroke-width="1.5" opacity="1"></line>
<rect x="266.2" y="236.8" width="26.0" height="41.0" rx="1.5" fill="#f23645" stroke="#f23645" opacity="1"></rect>
<line x1="333.0" y1="264.1" x2="333.0" y2="332.4" stroke="#b2b5be" stroke-width="1.5" opacity="1"></line>
<rect x="320.0" y="277.8" width="26.0" height="41.0" rx="1.5" fill="#f23645" stroke="#f23645" opacity="1"></rect>
<line x1="386.9" y1="291.4" x2="386.9" y2="373.3" stroke="#b2b5be" stroke-width="1.5" opacity="1"></line>
<rect x="373.9" y="305.1" width="26.0" height="13.7" rx="1.5" fill="#089981" stroke="#089981" opacity="1"></rect>
<line x1="440.8" y1="277.8" x2="440.8" y2="318.7" stroke="#b2b5be" stroke-width="1.5" opacity="1"></line>
<rect x="427.8" y="291.4" width="26.0" height="13.7" rx="1.5" fill="#089981" stroke="#089981" opacity="1"></rect>
<line x1="494.6" y1="264.1" x2="494.6" y2="305.1" stroke="#b2b5be" stroke-width="1.5" opacity="1"></line>
<rect x="481.6" y="277.8" width="26.0" height="13.7" rx="1.5" fill="#089981" stroke="#089981" opacity="1"></rect>
<line x1="548.5" y1="250.5" x2="548.5" y2="291.4" stroke="#b2b5be" stroke-width="1.5" opacity="1"></line>
<rect x="535.5" y="264.1" width="26.0" height="13.7" rx="1.5" fill="#089981" stroke="#089981" opacity="1"></rect>
<line x1="602.4" y1="236.8" x2="602.4" y2="277.8" stroke="#b2b5be" stroke-width="1.5" opacity="1"></line>
<rect x="589.4" y="250.5" width="26.0" height="13.7" rx="1.5" fill="#089981" stroke="#089981" opacity="1"></rect>
<line x1="656.2" y1="223.2" x2="656.2" y2="264.1" stroke="#b2b5be" stroke-width="1.5" opacity="1"></line>
<rect x="643.2" y="236.8" width="26.0" height="13.7" rx="1.5" fill="#089981" stroke="#089981" opacity="1"></rect>
<line x1="710.1" y1="195.9" x2="710.1" y2="250.5" stroke="#b2b5be" stroke-width="1.5" opacity="1"></line>
<rect x="697.1" y="209.5" width="26.0" height="27.3" rx="1.5" fill="#089981" stroke="#089981" opacity="1"></rect>
<line x1="764.0" y1="182.2" x2="764.0" y2="223.2" stroke="#b2b5be" stroke-width="1.5" opacity="1"></line>
<rect x="751.0" y="195.9" width="26.0" height="13.7" rx="1.5" fill="#089981" stroke="#089981" opacity="1"></rect>
<text x="430.0" y="446" fill="#787b86" font-size="12" text-anchor="middle">Two valid plays: aggressive reversal at demand, or patient breakout at resistance.</text>
</svg>