<svg xmlns="http://www.w3.org/2000/svg" viewBox="0 0 860 460" font-family="Segoe UI,Arial,sans-serif">
<rect width="860" height="460" rx="12" fill="#131722"/>
<line x1="26" y1="58" x2="834" y2="58" stroke="#1b2230" stroke-width="1"/>
<line x1="26" y1="98" x2="834" y2="98" stroke="#1b2230" stroke-width="1"/>
<line x1="26" y1="138" x2="834" y2="138" stroke="#1b2230" stroke-width="1"/>
<line x1="26" y1="178" x2="834" y2="178" stroke="#1b2230" stroke-width="1"/>
<line x1="26" y1="218" x2="834" y2="218" stroke="#1b2230" stroke-width="1"/>
<line x1="26" y1="258" x2="834" y2="258" stroke="#1b2230" stroke-width="1"/>
<line x1="26" y1="298" x2="834" y2="298" stroke="#1b2230" stroke-width="1"/>
<line x1="26" y1="338" x2="834" y2="338" stroke="#1b2230" stroke-width="1"/>
<line x1="26" y1="378" x2="834" y2="378" stroke="#1b2230" stroke-width="1"/>
<text x="26" y="28" fill="#d1d4dc" font-size="19" font-weight="700">Sweep + Hammer at Demand — both branches</text>
<text x="26" y="47" fill="#787b86" font-size="12.5">A sweep wick + hammer at demand: it either reverses long OR fails into a breakdown</text>
<rect x="332.2" y="241.0" width="231.6" height="132.3" fill="rgba(8,153,129,0.13)" stroke="#089981" stroke-width="1.1" stroke-dasharray="" opacity="1" rx="2"></rect>
<text x="337.2" y="255.0" fill="#089981" font-size="11" font-weight="600" opacity="1">sweep + hammer (reclaim)</text>
<line x1="26.0" y1="285.1" x2="834.0" y2="285.1" stroke="#26c6da" stroke-width="1.6" stroke-dasharray="True" opacity="1"></line>
<text x="29.0" y="280.1" fill="#26c6da" font-size="11" font-weight="600" text-anchor="start" opacity="1">demand / equal lows (liquidity)</text>
<path d="M537.7,219.0 L717.3,108.7" stroke="#089981" stroke-width="2.6" fill="none" stroke-dasharray="" marker-end="url(#bar_089981)" opacity="1"></path>
<text x="627.5" y="155.8" fill="#089981" font-size="10.5" font-weight="600" text-anchor="middle" opacity="1">continue up (reversal long)</text>
<path d="M537.7,263.1 L717.3,395.4" stroke="#f23645" stroke-width="2.4" fill="none" stroke-dasharray="5 4" marker-end="url(#bar_f23645)" opacity="1"></path>
<text x="627.5" y="343.2" fill="#f23645" font-size="10.5" font-weight="600" text-anchor="middle" opacity="1">fail → breakdown / fakeout</text>
<defs>
<marker id="bar_089981" markerWidth="9" markerHeight="9" refX="6" refY="4.5" orient="auto"><path d="M0,0 L9,4.5 L0,9 z" fill="#089981"/></marker>
<marker id="bar_f23645" markerWidth="9" markerHeight="9" refX="6" refY="4.5" orient="auto"><path d="M0,0 L9,4.5 L0,9 z" fill="#f23645"/></marker>
</defs>
<text x="430.0" y="377.9" fill="#787b86" font-size="10.5" font-weight="500" text-anchor="middle" opacity="1">reclaim &amp; hold = long; close back below the wick = the hammer failed</text>
<line x1="88.8" y1="86.7" x2="88.8" y2="174.9" stroke="#b2b5be" stroke-width="1.5" opacity="1"></line>
<rect x="75.8" y="108.7" width="26.0" height="44.1" rx="1.5" fill="#f23645" stroke="#f23645" opacity="1"></rect>
<line x1="178.6" y1="130.8" x2="178.6" y2="219.0" stroke="#b2b5be" stroke-width="1.5" opacity="1"></line>
<rect x="165.6" y="152.8" width="26.0" height="44.1" rx="1.5" fill="#f23645" stroke="#f23645" opacity="1"></rect>
<line x1="268.4" y1="174.9" x2="268.4" y2="263.1" stroke="#b2b5be" stroke-width="1.5" opacity="1"></line>
<rect x="255.4" y="196.9" width="26.0" height="44.1" rx="1.5" fill="#f23645" stroke="#f23645" opacity="1"></rect>
<line x1="358.2" y1="196.9" x2="358.2" y2="285.1" stroke="#b2b5be" stroke-width="1.5" opacity="1"></line>
<rect x="345.2" y="241.0" width="26.0" height="22.1" rx="1.5" fill="#f23645" stroke="#f23645" opacity="1"></rect>
<line x1="448.0" y1="219.0" x2="448.0" y2="373.3" stroke="#b2b5be" stroke-width="1.5" opacity="1"></line>
<rect x="435.0" y="241.0" width="26.0" height="22.1" rx="1.5" fill="#089981" stroke="#089981" opacity="1"></rect>
<line x1="537.7" y1="174.9" x2="537.7" y2="263.1" stroke="#b2b5be" stroke-width="1.5" opacity="1"></line>
<rect x="524.7" y="196.9" width="26.0" height="44.1" rx="1.5" fill="#089981" stroke="#089981" opacity="1"></rect>
<line x1="627.5" y1="130.8" x2="627.5" y2="219.0" stroke="#b2b5be" stroke-width="1.5" opacity="1"></line>
<rect x="614.5" y="152.8" width="26.0" height="44.1" rx="1.5" fill="#089981" stroke="#089981" opacity="1"></rect>
<line x1="717.3" y1="86.7" x2="717.3" y2="174.9" stroke="#b2b5be" stroke-width="1.5" opacity="1"></line>
<rect x="704.3" y="108.7" width="26.0" height="44.1" rx="1.5" fill="#089981" stroke="#089981" opacity="1"></rect>
<text x="430.0" y="446" fill="#787b86" font-size="12" text-anchor="middle">A hammer is only a signal once it RECLAIMS; a hammer that breaks lower is a trap.</text>
</svg>