<svg xmlns="http://www.w3.org/2000/svg" viewBox="0 0 860 460" font-family="Segoe UI,Arial,sans-serif">
<rect width="860" height="460" rx="12" fill="#131722"/>
<line x1="26" y1="58" x2="834" y2="58" stroke="#1b2230" stroke-width="1"/>
<line x1="26" y1="98" x2="834" y2="98" stroke="#1b2230" stroke-width="1"/>
<line x1="26" y1="138" x2="834" y2="138" stroke="#1b2230" stroke-width="1"/>
<line x1="26" y1="178" x2="834" y2="178" stroke="#1b2230" stroke-width="1"/>
<line x1="26" y1="218" x2="834" y2="218" stroke="#1b2230" stroke-width="1"/>
<line x1="26" y1="258" x2="834" y2="258" stroke="#1b2230" stroke-width="1"/>
<line x1="26" y1="298" x2="834" y2="298" stroke="#1b2230" stroke-width="1"/>
<line x1="26" y1="338" x2="834" y2="338" stroke="#1b2230" stroke-width="1"/>
<line x1="26" y1="378" x2="834" y2="378" stroke="#1b2230" stroke-width="1"/>
<text x="26" y="28" fill="#d1d4dc" font-size="19" font-weight="700">IB Travel — first hour, then travel to a level</text>
<text x="26" y="47" fill="#787b86" font-size="12.5">The opening range (Initial Balance) is the launch pad; price travels to the next mapped level</text>
<rect x="47.1" y="237.5" width="388.7" height="135.8" fill="rgba(240,185,15,0.12)" stroke="#787b86" stroke-width="1.1" stroke-dasharray="4 3" opacity="1" rx="2"></rect>
<text x="52.1" y="251.5" fill="#787b86" font-size="11" font-weight="600" opacity="1">Initial Balance (9:15–10:15)</text>
<line x1="26.0" y1="237.5" x2="834.0" y2="237.5" stroke="#f0b90b" stroke-width="1.6" stroke-dasharray="True" opacity="1"></line>
<text x="29.0" y="232.5" fill="#f0b90b" font-size="11" font-weight="600" text-anchor="start" opacity="1">IB high</text>
<line x1="26.0" y1="373.3" x2="834.0" y2="373.3" stroke="#26c6da" stroke-width="1.6" stroke-dasharray="True" opacity="1"></line>
<text x="29.0" y="368.3" fill="#26c6da" font-size="11" font-weight="600" text-anchor="start" opacity="1">IB low</text>
<line x1="26.0" y1="101.8" x2="834.0" y2="101.8" stroke="#2962ff" stroke-width="1.6" stroke-dasharray="True" opacity="1"></line>
<text x="29.0" y="96.8" fill="#2962ff" font-size="11" font-weight="600" text-anchor="start" opacity="1">target level (PDH / OI-wall)</text>
<path d="M477.1,267.7 L679.1,131.9" stroke="#089981" stroke-width="2.6" fill="none" stroke-dasharray="" marker-end="url(#bar_089981)" opacity="1"></path>
<text x="578.1" y="193.8" fill="#089981" font-size="10.5" font-weight="600" text-anchor="middle" opacity="1">travels to the level</text>
<defs>
<marker id="bar_089981" markerWidth="9" markerHeight="9" refX="6" refY="4.5" orient="auto"><path d="M0,0 L9,4.5 L0,9 z" fill="#089981"/></marker>
</defs>
<line x1="73.1" y1="267.7" x2="73.1" y2="373.3" stroke="#b2b5be" stroke-width="1.5" opacity="1"></line>
<rect x="60.1" y="282.8" width="26.0" height="30.2" rx="1.5" fill="#089981" stroke="#089981" opacity="1"></rect>
<line x1="140.5" y1="237.5" x2="140.5" y2="328.1" stroke="#b2b5be" stroke-width="1.5" opacity="1"></line>
<rect x="127.5" y="282.8" width="26.0" height="30.2" rx="1.5" fill="#f23645" stroke="#f23645" opacity="1"></rect>
<line x1="207.8" y1="237.5" x2="207.8" y2="343.2" stroke="#b2b5be" stroke-width="1.5" opacity="1"></line>
<rect x="194.8" y="252.6" width="26.0" height="60.4" rx="1.5" fill="#089981" stroke="#089981" opacity="1"></rect>
<line x1="275.1" y1="237.5" x2="275.1" y2="328.1" stroke="#b2b5be" stroke-width="1.5" opacity="1"></line>
<rect x="262.1" y="252.6" width="26.0" height="60.4" rx="1.5" fill="#f23645" stroke="#f23645" opacity="1"></rect>
<line x1="342.5" y1="237.5" x2="342.5" y2="328.1" stroke="#b2b5be" stroke-width="1.5" opacity="1"></line>
<rect x="329.5" y="252.6" width="26.0" height="60.4" rx="1.5" fill="#089981" stroke="#089981" opacity="1"></rect>
<line x1="409.8" y1="222.5" x2="409.8" y2="313.0" stroke="#b2b5be" stroke-width="1.5" opacity="1"></line>
<rect x="396.8" y="252.6" width="26.0" height="45.3" rx="1.5" fill="#f23645" stroke="#f23645" opacity="1"></rect>
<line x1="477.1" y1="207.4" x2="477.1" y2="313.0" stroke="#b2b5be" stroke-width="1.5" opacity="1"></line>
<rect x="464.1" y="222.5" width="26.0" height="75.4" rx="1.5" fill="#089981" stroke="#089981" opacity="1"></rect>
<line x1="544.5" y1="177.2" x2="544.5" y2="237.5" stroke="#b2b5be" stroke-width="1.5" opacity="1"></line>
<rect x="531.5" y="192.3" width="26.0" height="30.2" rx="1.5" fill="#089981" stroke="#089981" opacity="1"></rect>
<line x1="611.8" y1="131.9" x2="611.8" y2="207.4" stroke="#b2b5be" stroke-width="1.5" opacity="1"></line>
<rect x="598.8" y="147.0" width="26.0" height="45.3" rx="1.5" fill="#089981" stroke="#089981" opacity="1"></rect>
<line x1="679.1" y1="101.8" x2="679.1" y2="162.1" stroke="#b2b5be" stroke-width="1.5" opacity="1"></line>
<rect x="666.1" y="116.8" width="26.0" height="30.2" rx="1.5" fill="#089981" stroke="#089981" opacity="1"></rect>
<line x1="746.5" y1="86.7" x2="746.5" y2="131.9" stroke="#b2b5be" stroke-width="1.5" opacity="1"></line>
<rect x="733.5" y="101.8" width="26.0" height="15.1" rx="1.5" fill="#089981" stroke="#089981" opacity="1"></rect>
<text x="430.0" y="446" fill="#787b86" font-size="12" text-anchor="middle">No trade INSIDE the IB; the edges define where price goes looking for liquidity.</text>
</svg>