<svg xmlns="http://www.w3.org/2000/svg" viewBox="0 0 860 460" font-family="Segoe UI,Arial,sans-serif">
<rect width="860" height="460" rx="12" fill="#131722"/>
<line x1="26" y1="58" x2="704" y2="58" stroke="#1b2230" stroke-width="1"/>
<line x1="26" y1="98" x2="704" y2="98" stroke="#1b2230" stroke-width="1"/>
<line x1="26" y1="138" x2="704" y2="138" stroke="#1b2230" stroke-width="1"/>
<line x1="26" y1="178" x2="704" y2="178" stroke="#1b2230" stroke-width="1"/>
<line x1="26" y1="218" x2="704" y2="218" stroke="#1b2230" stroke-width="1"/>
<line x1="26" y1="258" x2="704" y2="258" stroke="#1b2230" stroke-width="1"/>
<line x1="26" y1="298" x2="704" y2="298" stroke="#1b2230" stroke-width="1"/>
<line x1="26" y1="338" x2="704" y2="338" stroke="#1b2230" stroke-width="1"/>
<line x1="26" y1="378" x2="704" y2="378" stroke="#1b2230" stroke-width="1"/>
<text x="26" y="28" fill="#d1d4dc" font-size="19" font-weight="700">Level Map — only what matters</text>
<text x="26" y="47" fill="#787b86" font-size="12.5">Mark 4–6 QUALIFIED levels: fresh OB + one FVG + swing H/L + PDH/PDL + a liquidity pool</text>
<text x="718" y="50" fill="#787b86" font-size="10.5">Volume Profile</text>
<rect x="718.0" y="53.6" width="33.0" height="14.0" fill="#22303f" rx="1.5"/>
<rect x="718.0" y="105.7" width="49.5" height="14.0" fill="#3a4f6d" rx="1.5"/>
<rect x="718.0" y="157.8" width="110.0" height="14.0" fill="#f0b90b" rx="1.5"/>
<rect x="718.0" y="210.0" width="68.2" height="14.0" fill="#3a4f6d" rx="1.5"/>
<rect x="718.0" y="262.1" width="44.0" height="14.0" fill="#3a4f6d" rx="1.5"/>
<rect x="718.0" y="314.2" width="28.6" height="14.0" fill="#22303f" rx="1.5"/>
<rect x="718.0" y="366.3" width="24.2" height="14.0" fill="#22303f" rx="1.5"/>
<line x1="26" y1="112.7" x2="828.0" y2="112.7" stroke="#26c6da" stroke-width="1.3" stroke-dasharray="2 3"/>
<text x="828.0" y="115.7" fill="#26c6da" font-size="10" text-anchor="end">VAH</text>
<line x1="26" y1="269.1" x2="828.0" y2="269.1" stroke="#26c6da" stroke-width="1.3" stroke-dasharray="2 3"/>
<text x="828.0" y="272.1" fill="#26c6da" font-size="10" text-anchor="end">VAL</text>
<line x1="26" y1="164.8" x2="828.0" y2="164.8" stroke="#f0b90b" stroke-width="1.3" stroke-dasharray="2 3"/>
<text x="828.0" y="167.8" fill="#f0b90b" font-size="10" text-anchor="end">POC</text>
<rect x="36.5" y="330.3" width="312.8" height="30.0" fill="rgba(8,153,129,0.13)" stroke="#089981" stroke-width="1.1" stroke-dasharray="" opacity="1" rx="2"></rect>
<text x="41.5" y="344.3" fill="#089981" font-size="11" font-weight="600" opacity="1">fresh OB (demand)</text>
<rect x="349.4" y="177.9" width="104.2" height="39.1" fill="rgba(41,98,255,0.12)" stroke="#2962ff" stroke-width="1.1" stroke-dasharray="" opacity="1" rx="2"></rect>
<text x="354.4" y="191.9" fill="#2962ff" font-size="11" font-weight="600" opacity="1">fresh FVG</text>
<line x1="26.0" y1="86.7" x2="704.0" y2="86.7" stroke="#787b86" stroke-width="1.3" stroke-dasharray="True" opacity="1"></line>
<text x="29.0" y="81.7" fill="#787b86" font-size="11" font-weight="600" text-anchor="start" opacity="1">PDH</text>
<line x1="26.0" y1="373.3" x2="704.0" y2="373.3" stroke="#787b86" stroke-width="1.3" stroke-dasharray="True" opacity="1"></line>
<text x="29.0" y="368.3" fill="#787b86" font-size="11" font-weight="600" text-anchor="start" opacity="1">PDL</text>
<line x1="26.0" y1="164.8" x2="704.0" y2="164.8" stroke="#f0b90b" stroke-width="1.6" stroke-dasharray="True" opacity="1"></line>
<text x="29.0" y="159.8" fill="#f0b90b" font-size="11" font-weight="600" text-anchor="start" opacity="1">swing high = equal-highs liquidity</text>
<line x1="62.5" y1="282.1" x2="62.5" y2="334.2" stroke="#b2b5be" stroke-width="1.5" opacity="1"></line>
<rect x="49.5" y="295.2" width="26.0" height="26.1" rx="1.5" fill="#089981" stroke="#089981" opacity="1"></rect>
<line x1="114.7" y1="256.1" x2="114.7" y2="308.2" stroke="#b2b5be" stroke-width="1.5" opacity="1"></line>
<rect x="101.7" y="269.1" width="26.0" height="26.1" rx="1.5" fill="#089981" stroke="#089981" opacity="1"></rect>
<line x1="166.8" y1="230.0" x2="166.8" y2="282.1" stroke="#b2b5be" stroke-width="1.5" opacity="1"></line>
<rect x="153.8" y="256.1" width="26.0" height="13.0" rx="1.5" fill="#089981" stroke="#089981" opacity="1"></rect>
<line x1="219.0" y1="230.0" x2="219.0" y2="295.2" stroke="#b2b5be" stroke-width="1.5" opacity="1"></line>
<rect x="206.0" y="256.1" width="26.0" height="26.1" rx="1.5" fill="#f23645" stroke="#f23645" opacity="1"></rect>
<line x1="271.1" y1="243.0" x2="271.1" y2="295.2" stroke="#b2b5be" stroke-width="1.5" opacity="1"></line>
<rect x="258.1" y="256.1" width="26.0" height="26.1" rx="1.5" fill="#089981" stroke="#089981" opacity="1"></rect>
<line x1="323.3" y1="217.0" x2="323.3" y2="269.1" stroke="#b2b5be" stroke-width="1.5" opacity="1"></line>
<rect x="310.3" y="243.0" width="26.0" height="13.0" rx="1.5" fill="#089981" stroke="#089981" opacity="1"></rect>
<line x1="375.4" y1="203.9" x2="375.4" y2="256.1" stroke="#b2b5be" stroke-width="1.5" opacity="1"></line>
<rect x="362.4" y="217.0" width="26.0" height="26.1" rx="1.5" fill="#089981" stroke="#089981" opacity="1"></rect>
<line x1="427.6" y1="177.9" x2="427.6" y2="230.0" stroke="#b2b5be" stroke-width="1.5" opacity="1"></line>
<rect x="414.6" y="190.9" width="26.0" height="26.1" rx="1.5" fill="#089981" stroke="#089981" opacity="1"></rect>
<line x1="479.7" y1="164.8" x2="479.7" y2="217.0" stroke="#b2b5be" stroke-width="1.5" opacity="1"></line>
<rect x="466.7" y="190.9" width="26.0" height="13.0" rx="1.5" fill="#f23645" stroke="#f23645" opacity="1"></rect>
<line x1="531.9" y1="177.9" x2="531.9" y2="230.0" stroke="#b2b5be" stroke-width="1.5" opacity="1"></line>
<rect x="518.9" y="203.9" width="26.0" height="13.0" rx="1.5" fill="#f23645" stroke="#f23645" opacity="1"></rect>
<line x1="584.0" y1="190.9" x2="584.0" y2="243.0" stroke="#b2b5be" stroke-width="1.5" opacity="1"></line>
<rect x="571.0" y="217.0" width="26.0" height="13.0" rx="1.5" fill="#f23645" stroke="#f23645" opacity="1"></rect>
<line x1="636.2" y1="190.9" x2="636.2" y2="243.0" stroke="#b2b5be" stroke-width="1.5" opacity="1"></line>
<rect x="623.2" y="203.9" width="26.0" height="26.1" rx="1.5" fill="#089981" stroke="#089981" opacity="1"></rect>
<text x="430.0" y="446" fill="#787b86" font-size="12" text-anchor="middle">Decluttered: only fresh, HTF-aligned, near-price levels. Everything else stays off the chart.</text>
</svg>