<svg xmlns="http://www.w3.org/2000/svg" viewBox="0 0 860 470" font-family="Segoe UI,Arial,sans-serif">
<rect width="860" height="470" rx="12" fill="#131722"/>
<text x="26" y="30" fill="#d1d4dc" font-size="19" font-weight="700">Per-Play Cards</text>
<text x="26" y="49" fill="#787b86" font-size="12.5">Each play as a checklist: context gate · entry · SL · target · options note</text>
<rect x="22.0" y="80.0" width="152.0" height="320.0" rx="8" fill="#161d2b" stroke="#089981" stroke-width="1.4"/>
<rect x="22.0" y="80.0" width="152.0" height="30" rx="8" fill="#089981" opacity="0.20"/>
<text x="98.0" y="100.0" fill="#089981" font-size="12.5" font-weight="700" text-anchor="middle">BREAKOUT</text>
<text x="32.0" y="126.0" fill="#089981" font-size="9.5" font-weight="700">Context</text>
<text x="32.0" y="140.0" fill="#787b86" font-size="9.5">trend / neg-GEX</text>
<text x="32.0" y="158.0" fill="#089981" font-size="9.5" font-weight="700">Entry</text>
<text x="32.0" y="172.0" fill="#787b86" font-size="9.5">conviction close</text>
<text x="32.0" y="184.0" fill="#787b86" font-size="9.5">beyond level</text>
<text x="32.0" y="202.0" fill="#089981" font-size="9.5" font-weight="700">SL</text>
<text x="32.0" y="216.0" fill="#787b86" font-size="9.5">under reclaimed level</text>
<text x="32.0" y="228.0" fill="#787b86" font-size="9.5">+ ATR</text>
<text x="32.0" y="246.0" fill="#089981" font-size="9.5" font-weight="700">Target</text>
<text x="32.0" y="260.0" fill="#787b86" font-size="9.5">next HVN / measured</text>
<text x="32.0" y="272.0" fill="#787b86" font-size="9.5">move</text>
<text x="32.0" y="290.0" fill="#089981" font-size="9.5" font-weight="700">Options</text>
<text x="32.0" y="304.0" fill="#787b86" font-size="9.5">ATM call/put; verify</text>
<text x="32.0" y="316.0" fill="#787b86" font-size="9.5">OI builds</text>
<rect x="188.0" y="80.0" width="152.0" height="320.0" rx="8" fill="#161d2b" stroke="#f23645" stroke-width="1.4"/>
<rect x="188.0" y="80.0" width="152.0" height="30" rx="8" fill="#f23645" opacity="0.20"/>
<text x="264.0" y="100.0" fill="#f23645" font-size="12.5" font-weight="700" text-anchor="middle">FAKEOUT</text>
<text x="198.0" y="126.0" fill="#f23645" font-size="9.5" font-weight="700">Context</text>
<text x="198.0" y="140.0" fill="#787b86" font-size="9.5">balance / pos-GEX</text>
<text x="198.0" y="158.0" fill="#f23645" font-size="9.5" font-weight="700">Entry</text>
<text x="198.0" y="172.0" fill="#787b86" font-size="9.5">close back inside</text>
<text x="198.0" y="184.0" fill="#787b86" font-size="9.5">after the poke</text>
<text x="198.0" y="202.0" fill="#f23645" font-size="9.5" font-weight="700">SL</text>
<text x="198.0" y="216.0" fill="#787b86" font-size="9.5">beyond the failed</text>
<text x="198.0" y="228.0" fill="#787b86" font-size="9.5">wick</text>
<text x="198.0" y="246.0" fill="#f23645" font-size="9.5" font-weight="700">Target</text>
<text x="198.0" y="260.0" fill="#787b86" font-size="9.5">opposite edge / POC</text>
<text x="198.0" y="278.0" fill="#f23645" font-size="9.5" font-weight="700">Options</text>
<text x="198.0" y="292.0" fill="#787b86" font-size="9.5">fade with ATM; quick</text>
<text x="198.0" y="304.0" fill="#787b86" font-size="9.5">theta-aware exit</text>
<rect x="354.0" y="80.0" width="152.0" height="320.0" rx="8" fill="#161d2b" stroke="#f0b90b" stroke-width="1.4"/>
<rect x="354.0" y="80.0" width="152.0" height="30" rx="8" fill="#f0b90b" opacity="0.20"/>
<text x="430.0" y="100.0" fill="#f0b90b" font-size="12.5" font-weight="700" text-anchor="middle">REVERSAL</text>
<text x="364.0" y="126.0" fill="#f0b90b" font-size="9.5" font-weight="700">Context</text>
<text x="364.0" y="140.0" fill="#787b86" font-size="9.5">sweep + reclaim at</text>
<text x="364.0" y="152.0" fill="#787b86" font-size="9.5">level</text>
<text x="364.0" y="170.0" fill="#f0b90b" font-size="9.5" font-weight="700">Entry</text>
<text x="364.0" y="184.0" fill="#787b86" font-size="9.5">reclaim candle holds</text>
<text x="364.0" y="202.0" fill="#f0b90b" font-size="9.5" font-weight="700">SL</text>
<text x="364.0" y="216.0" fill="#787b86" font-size="9.5">beyond the sweep wick</text>
<text x="364.0" y="234.0" fill="#f0b90b" font-size="9.5" font-weight="700">Target</text>
<text x="364.0" y="248.0" fill="#787b86" font-size="9.5">prior swing / value</text>
<text x="364.0" y="260.0" fill="#787b86" font-size="9.5">edge</text>
<text x="364.0" y="278.0" fill="#f0b90b" font-size="9.5" font-weight="700">Options</text>
<text x="364.0" y="292.0" fill="#787b86" font-size="9.5">ATM; size down,</text>
<text x="364.0" y="304.0" fill="#787b86" font-size="9.5">news-aware</text>
<rect x="520.0" y="80.0" width="152.0" height="320.0" rx="8" fill="#161d2b" stroke="#2962ff" stroke-width="1.4"/>
<rect x="520.0" y="80.0" width="152.0" height="30" rx="8" fill="#2962ff" opacity="0.20"/>
<text x="596.0" y="100.0" fill="#2962ff" font-size="12.5" font-weight="700" text-anchor="middle">PULLBACK</text>
<text x="530.0" y="126.0" fill="#2962ff" font-size="9.5" font-weight="700">Context</text>
<text x="530.0" y="140.0" fill="#787b86" font-size="9.5">post-break retest</text>
<text x="530.0" y="158.0" fill="#2962ff" font-size="9.5" font-weight="700">Entry</text>
<text x="530.0" y="172.0" fill="#787b86" font-size="9.5">reaction at reclaimed</text>
<text x="530.0" y="184.0" fill="#787b86" font-size="9.5">level/OB</text>
<text x="530.0" y="202.0" fill="#2962ff" font-size="9.5" font-weight="700">SL</text>
<text x="530.0" y="216.0" fill="#787b86" font-size="9.5">under the level</text>
<text x="530.0" y="228.0" fill="#787b86" font-size="9.5">(tight)</text>
<text x="530.0" y="246.0" fill="#2962ff" font-size="9.5" font-weight="700">Target</text>
<text x="530.0" y="260.0" fill="#787b86" font-size="9.5">prior high / next</text>
<text x="530.0" y="272.0" fill="#787b86" font-size="9.5">node</text>
<text x="530.0" y="290.0" fill="#2962ff" font-size="9.5" font-weight="700">Options</text>
<text x="530.0" y="304.0" fill="#787b86" font-size="9.5">ATM/1-OTM; best R of</text>
<text x="530.0" y="316.0" fill="#787b86" font-size="9.5">the set</text>
<rect x="686.0" y="80.0" width="152.0" height="320.0" rx="8" fill="#161d2b" stroke="#26c6da" stroke-width="1.4"/>
<rect x="686.0" y="80.0" width="152.0" height="30" rx="8" fill="#26c6da" opacity="0.20"/>
<text x="762.0" y="100.0" fill="#26c6da" font-size="12.5" font-weight="700" text-anchor="middle">CONTINUATION</text>
<text x="696.0" y="126.0" fill="#26c6da" font-size="9.5" font-weight="700">Context</text>
<text x="696.0" y="140.0" fill="#787b86" font-size="9.5">trend pause (flag/IB)</text>
<text x="696.0" y="158.0" fill="#26c6da" font-size="9.5" font-weight="700">Entry</text>
<text x="696.0" y="172.0" fill="#787b86" font-size="9.5">break of the pause</text>
<text x="696.0" y="184.0" fill="#787b86" font-size="9.5">structure</text>
<text x="696.0" y="202.0" fill="#26c6da" font-size="9.5" font-weight="700">SL</text>
<text x="696.0" y="216.0" fill="#787b86" font-size="9.5">under the flag/IB</text>
<text x="696.0" y="234.0" fill="#26c6da" font-size="9.5" font-weight="700">Target</text>
<text x="696.0" y="248.0" fill="#787b86" font-size="9.5">measured move of leg</text>
<text x="696.0" y="266.0" fill="#26c6da" font-size="9.5" font-weight="700">Options</text>
<text x="696.0" y="280.0" fill="#787b86" font-size="9.5">1-OTM ok in strong</text>
<text x="696.0" y="292.0" fill="#787b86" font-size="9.5">trend</text>
<text x="430.0" y="458" fill="#787b86" font-size="11.5" text-anchor="middle">Same skeleton, five contexts — drill them until the read-to-action is automatic.</text>
</svg>