<svg xmlns="http://www.w3.org/2000/svg" viewBox="0 0 860 460" font-family="Segoe UI,Arial,sans-serif">
<rect width="860" height="460" rx="12" fill="#131722"/>
<line x1="26" y1="58" x2="704" y2="58" stroke="#1b2230" stroke-width="1"/>
<line x1="26" y1="98" x2="704" y2="98" stroke="#1b2230" stroke-width="1"/>
<line x1="26" y1="138" x2="704" y2="138" stroke="#1b2230" stroke-width="1"/>
<line x1="26" y1="178" x2="704" y2="178" stroke="#1b2230" stroke-width="1"/>
<line x1="26" y1="218" x2="704" y2="218" stroke="#1b2230" stroke-width="1"/>
<line x1="26" y1="258" x2="704" y2="258" stroke="#1b2230" stroke-width="1"/>
<line x1="26" y1="298" x2="704" y2="298" stroke="#1b2230" stroke-width="1"/>
<line x1="26" y1="338" x2="704" y2="338" stroke="#1b2230" stroke-width="1"/>
<line x1="26" y1="378" x2="704" y2="378" stroke="#1b2230" stroke-width="1"/>
<text x="26" y="28" fill="#d1d4dc" font-size="19" font-weight="700">Targets Map — where to take profit</text>
<text x="26" y="47" fill="#787b86" font-size="12.5">Targets = next HVN · an OI-wall · a naked POC · a measured move</text>
<text x="718" y="50" fill="#787b86" font-size="10.5">Volume Profile</text>
<rect x="718.0" y="80.2" width="33.0" height="13.0" fill="#22303f" rx="1.5"/>
<text x="755.0" y="89.7" fill="#787b86" font-size="9">LVN</text>
<rect x="718.0" y="119.7" width="60.5" height="13.0" fill="#3a4f6d" rx="1.5"/>
<text x="782.5" y="129.2" fill="#787b86" font-size="9">HVN</text>
<rect x="718.0" y="159.2" width="110.0" height="13.0" fill="#f0b90b" rx="1.5"/>
<text x="832.0" y="168.7" fill="#787b86" font-size="9">POC</text>
<rect x="718.0" y="198.8" width="49.5" height="13.0" fill="#3a4f6d" rx="1.5"/>
<text x="771.5" y="208.3" fill="#787b86" font-size="9">HVN</text>
<rect x="718.0" y="238.3" width="38.5" height="13.0" fill="#22303f" rx="1.5"/>
<text x="760.5" y="247.8" fill="#787b86" font-size="9">LVN</text>
<rect x="718.0" y="277.9" width="55.0" height="13.0" fill="#3a4f6d" rx="1.5"/>
<text x="777.0" y="287.4" fill="#787b86" font-size="9">HVN</text>
<rect x="718.0" y="317.4" width="33.0" height="13.0" fill="#22303f" rx="1.5"/>
<text x="755.0" y="326.9" fill="#787b86" font-size="9">LVN</text>
<line x1="26" y1="126.2" x2="828.0" y2="126.2" stroke="#26c6da" stroke-width="1.3" stroke-dasharray="2 3"/>
<text x="828.0" y="129.2" fill="#26c6da" font-size="10" text-anchor="end">VAH</text>
<line x1="26" y1="284.4" x2="828.0" y2="284.4" stroke="#26c6da" stroke-width="1.3" stroke-dasharray="2 3"/>
<text x="828.0" y="287.4" fill="#26c6da" font-size="10" text-anchor="end">VAL</text>
<line x1="26" y1="165.7" x2="828.0" y2="165.7" stroke="#f0b90b" stroke-width="1.3" stroke-dasharray="2 3"/>
<text x="828.0" y="168.7" fill="#f0b90b" font-size="10" text-anchor="end">POC</text>
<line x1="26.0" y1="205.3" x2="704.0" y2="205.3" stroke="#26c6da" stroke-width="1.6" stroke-dasharray="True" opacity="1"></line>
<text x="29.0" y="200.3" fill="#26c6da" font-size="11" font-weight="600" text-anchor="start" opacity="1">T1: next HVN</text>
<line x1="26.0" y1="165.7" x2="704.0" y2="165.7" stroke="#f0b90b" stroke-width="1.6" stroke-dasharray="True" opacity="1"></line>
<text x="29.0" y="160.7" fill="#f0b90b" font-size="11" font-weight="600" text-anchor="start" opacity="1">T2: naked POC</text>
<line x1="26.0" y1="126.2" x2="704.0" y2="126.2" stroke="#2962ff" stroke-width="1.6" stroke-dasharray="True" opacity="1"></line>
<text x="29.0" y="121.2" fill="#2962ff" font-size="11" font-weight="600" text-anchor="start" opacity="1">T3: OI-wall</text>
<line x1="26.0" y1="86.7" x2="704.0" y2="86.7" stroke="#9c27b0" stroke-width="1.6" stroke-dasharray="True" opacity="1"></line>
<text x="29.0" y="81.7" fill="#9c27b0" font-size="11" font-weight="600" text-anchor="start" opacity="1">T4: measured move</text>
<path d="M304.7,284.4 L455.4,225.1" stroke="#089981" stroke-width="2.6" fill="none" stroke-dasharray="" marker-end="url(#bar_089981)" opacity="1"></path>
<text x="380.1" y="248.7" fill="#089981" font-size="10.5" font-weight="600" text-anchor="middle" opacity="1">run into targets</text>
<defs>
<marker id="bar_089981" markerWidth="9" markerHeight="9" refX="6" refY="4.5" orient="auto"><path d="M0,0 L9,4.5 L0,9 z" fill="#089981"/></marker>
</defs>
<line x1="78.7" y1="333.8" x2="78.7" y2="373.3" stroke="#b2b5be" stroke-width="1.5" opacity="1"></line>
<rect x="65.7" y="343.7" width="26.0" height="19.8" rx="1.5" fill="#089981" stroke="#089981" opacity="1"></rect>
<line x1="154.1" y1="314.0" x2="154.1" y2="353.6" stroke="#b2b5be" stroke-width="1.5" opacity="1"></line>
<rect x="141.1" y="323.9" width="26.0" height="19.8" rx="1.5" fill="#089981" stroke="#089981" opacity="1"></rect>
<line x1="229.4" y1="284.4" x2="229.4" y2="333.8" stroke="#b2b5be" stroke-width="1.5" opacity="1"></line>
<rect x="216.4" y="294.3" width="26.0" height="29.7" rx="1.5" fill="#089981" stroke="#089981" opacity="1"></rect>
<line x1="304.7" y1="244.8" x2="304.7" y2="304.1" stroke="#b2b5be" stroke-width="1.5" opacity="1"></line>
<rect x="291.7" y="254.7" width="26.0" height="39.5" rx="1.5" fill="#089981" stroke="#089981" opacity="1"></rect>
<line x1="380.1" y1="225.1" x2="380.1" y2="264.6" stroke="#b2b5be" stroke-width="1.5" opacity="1"></line>
<rect x="367.1" y="234.9" width="26.0" height="19.8" rx="1.5" fill="#089981" stroke="#089981" opacity="1"></rect>
<line x1="455.4" y1="205.3" x2="455.4" y2="244.8" stroke="#b2b5be" stroke-width="1.5" opacity="1"></line>
<rect x="442.4" y="215.2" width="26.0" height="19.8" rx="1.5" fill="#089981" stroke="#089981" opacity="1"></rect>
<line x1="530.7" y1="185.5" x2="530.7" y2="225.1" stroke="#b2b5be" stroke-width="1.5" opacity="1"></line>
<rect x="517.7" y="195.4" width="26.0" height="19.8" rx="1.5" fill="#089981" stroke="#089981" opacity="1"></rect>
<line x1="606.1" y1="165.7" x2="606.1" y2="205.3" stroke="#b2b5be" stroke-width="1.5" opacity="1"></line>
<rect x="593.1" y="175.6" width="26.0" height="19.8" rx="1.5" fill="#089981" stroke="#089981" opacity="1"></rect>
<text x="430.0" y="446" fill="#787b86" font-size="12" text-anchor="middle">Stack exits at the next magnets; trail the last runner toward the measured move.</text>
</svg>