<svg xmlns="http://www.w3.org/2000/svg" viewBox="0 0 860 420" font-family="Segoe UI,Arial,sans-serif">
<rect width="860" height="420" rx="12" fill="#131722"/>
<text x="26" y="30" fill="#d1d4dc" font-size="19" font-weight="700">Intraday Theta Decay</text>
<text x="26" y="49" fill="#787b86" font-size="12.5">Weekly-option premium bleeds all day and ACCELERATES after ~2:30pm IST</text>
<line x1="76" y1="90" x2="76" y2="330" stroke="#787b86" stroke-width="1.2"/>
<line x1="76" y1="330" x2="804" y2="330" stroke="#787b86" stroke-width="1.2"/>
<text x="34" y="210.0" fill="#787b86" font-size="10.5" transform="rotate(-90 34 210.0)" text-anchor="middle">premium (time value)</text>
<line x1="76.0" y1="330.0" x2="76.0" y2="335.0" stroke="#787b86" stroke-width="1"/>
<text x="76.0" y="350.0" fill="#787b86" font-size="9.5" text-anchor="middle">9:15</text>
<line x1="279.8" y1="330.0" x2="279.8" y2="335.0" stroke="#787b86" stroke-width="1"/>
<text x="279.8" y="350.0" fill="#787b86" font-size="9.5" text-anchor="middle">11:00</text>
<line x1="403.6" y1="330.0" x2="403.6" y2="335.0" stroke="#787b86" stroke-width="1"/>
<text x="403.6" y="350.0" fill="#787b86" font-size="9.5" text-anchor="middle">12:30</text>
<line x1="556.5" y1="330.0" x2="556.5" y2="335.0" stroke="#787b86" stroke-width="1"/>
<text x="556.5" y="350.0" fill="#787b86" font-size="9.5" text-anchor="middle">2:00</text>
<line x1="614.7" y1="330.0" x2="614.7" y2="335.0" stroke="#787b86" stroke-width="1"/>
<text x="614.7" y="350.0" fill="#787b86" font-size="9.5" text-anchor="middle">2:30</text>
<line x1="702.1" y1="330.0" x2="702.1" y2="335.0" stroke="#787b86" stroke-width="1"/>
<text x="702.1" y="350.0" fill="#787b86" font-size="9.5" text-anchor="middle">3:00</text>
<line x1="804.0" y1="330.0" x2="804.0" y2="335.0" stroke="#787b86" stroke-width="1"/>
<text x="804.0" y="350.0" fill="#787b86" font-size="9.5" text-anchor="middle">3:30</text>
<path d="M76.0,90.0 L94.2,91.8 L112.4,93.7 L130.6,95.6 L148.8,97.6 L167.0,99.8 L185.2,102.0 L203.4,104.4 L221.6,107.0 L239.8,109.7 L258.0,112.6 L276.2,115.7 L294.4,118.9 L312.6,122.4 L330.8,126.2 L349.0,130.1 L367.2,134.3 L385.4,138.8 L403.6,143.5 L421.8,148.5 L440.0,153.7 L458.2,159.3 L476.4,165.1 L494.6,171.3 L512.8,177.7 L531.0,184.5 L549.2,191.6 L567.4,199.1 L585.6,206.9 L603.8,215.0 L622.0,223.5 L640.2,232.4 L658.4,241.6 L676.6,251.3 L694.8,261.3 L713.0,271.7 L731.2,282.5 L749.4,293.8 L767.6,305.4 L785.8,317.5 L804.0,330.0" stroke="#f23645" stroke-width="2.8" fill="none"/>
<line x1="614.7" y1="90.0" x2="614.7" y2="330.0" stroke="#f0b90b" stroke-width="1.4" stroke-dasharray="5 4"/>
<text x="620.7" y="106.0" fill="#f0b90b" font-size="11" font-weight="600">~2:30pm: decay accelerates</text>
<text x="136.0" y="130.0" fill="#787b86" font-size="10.5">slow bleed early →</text>
<text x="430.0" y="408" fill="#787b86" font-size="11.5" text-anchor="middle">Buying weeklies into the close fights theta — take profits / cut quicker in the last hour.</text>
</svg>