<svg xmlns="http://www.w3.org/2000/svg" viewBox="0 0 860 460" font-family="Segoe UI,Arial,sans-serif">
<rect width="860" height="460" rx="12" fill="#131722"/>
<line x1="26" y1="58" x2="674" y2="58" stroke="#1b2230" stroke-width="1"/>
<line x1="26" y1="98" x2="674" y2="98" stroke="#1b2230" stroke-width="1"/>
<line x1="26" y1="138" x2="674" y2="138" stroke="#1b2230" stroke-width="1"/>
<line x1="26" y1="178" x2="674" y2="178" stroke="#1b2230" stroke-width="1"/>
<line x1="26" y1="218" x2="674" y2="218" stroke="#1b2230" stroke-width="1"/>
<line x1="26" y1="258" x2="674" y2="258" stroke="#1b2230" stroke-width="1"/>
<line x1="26" y1="298" x2="674" y2="298" stroke="#1b2230" stroke-width="1"/>
<line x1="26" y1="338" x2="674" y2="338" stroke="#1b2230" stroke-width="1"/>
<line x1="26" y1="378" x2="674" y2="378" stroke="#1b2230" stroke-width="1"/>
<text x="26" y="28" fill="#d1d4dc" font-size="19" font-weight="700">First-Touch vs Retest Entry</text>
<text x="26" y="47" fill="#787b86" font-size="12.5">Chase the break (first-touch, wide stop) — or wait for the retest (tight stop)</text>
<rect x="369.4" y="230.0" width="116.8" height="53.8" fill="rgba(8,153,129,0.13)" stroke="#089981" stroke-width="1.1" stroke-dasharray="" opacity="1" rx="2"></rect>
<text x="374.4" y="244.0" fill="#089981" font-size="11" font-weight="600" opacity="1">retest zone</text>
<line x1="26.0" y1="265.8" x2="674.0" y2="265.8" stroke="#f0b90b" stroke-width="1.6" stroke-dasharray="True" opacity="1"></line>
<text x="29.0" y="260.8" fill="#f0b90b" font-size="11" font-weight="600" text-anchor="start" opacity="1">broken level → now support</text>
<path d="M265.8,230.0 L265.8,176.2" stroke="#787b86" stroke-width="2.2" fill="none" stroke-dasharray="" marker-end="url(#bar_787b86)" opacity="1"></path>
<text x="265.8" y="195.1" fill="#787b86" font-size="10.5" font-weight="600" text-anchor="middle" opacity="1">first-touch (wide stop)</text>
<path d="M460.2,265.8 L525.0,158.3" stroke="#089981" stroke-width="2.6" fill="none" stroke-dasharray="" marker-end="url(#bar_089981)" opacity="1"></path>
<text x="492.6" y="204.1" fill="#089981" font-size="10.5" font-weight="600" text-anchor="middle" opacity="1">retest entry (tight stop)</text>
<defs>
<marker id="bar_089981" markerWidth="9" markerHeight="9" refX="6" refY="4.5" orient="auto"><path d="M0,0 L9,4.5 L0,9 z" fill="#089981"/></marker>
<marker id="bar_787b86" markerWidth="9" markerHeight="9" refX="6" refY="4.5" orient="auto"><path d="M0,0 L9,4.5 L0,9 z" fill="#787b86"/></marker>
</defs>
<line x1="71.4" y1="319.6" x2="71.4" y2="373.3" stroke="#b2b5be" stroke-width="1.5" opacity="1"></line>
<rect x="58.4" y="337.5" width="26.0" height="17.9" rx="1.5" fill="#089981" stroke="#089981" opacity="1"></rect>
<line x1="136.2" y1="301.7" x2="136.2" y2="355.4" stroke="#b2b5be" stroke-width="1.5" opacity="1"></line>
<rect x="123.2" y="319.6" width="26.0" height="17.9" rx="1.5" fill="#089981" stroke="#089981" opacity="1"></rect>
<line x1="201.0" y1="283.8" x2="201.0" y2="337.5" stroke="#b2b5be" stroke-width="1.5" opacity="1"></line>
<rect x="188.0" y="301.7" width="26.0" height="17.9" rx="1.5" fill="#089981" stroke="#089981" opacity="1"></rect>
<line x1="265.8" y1="158.3" x2="265.8" y2="319.6" stroke="#b2b5be" stroke-width="1.5" opacity="1"></line>
<rect x="252.8" y="176.2" width="26.0" height="125.4" rx="1.5" fill="#089981" stroke="#089981" opacity="1"></rect>
<line x1="330.6" y1="140.4" x2="330.6" y2="212.1" stroke="#b2b5be" stroke-width="1.5" opacity="1"></line>
<rect x="317.6" y="176.2" width="26.0" height="17.9" rx="1.5" fill="#f23645" stroke="#f23645" opacity="1"></rect>
<line x1="395.4" y1="176.2" x2="395.4" y2="283.8" stroke="#b2b5be" stroke-width="1.5" opacity="1"></line>
<rect x="382.4" y="194.2" width="26.0" height="71.7" rx="1.5" fill="#f23645" stroke="#f23645" opacity="1"></rect>
<line x1="460.2" y1="230.0" x2="460.2" y2="283.8" stroke="#b2b5be" stroke-width="1.5" opacity="1"></line>
<rect x="447.2" y="247.9" width="26.0" height="17.9" rx="1.5" fill="#089981" stroke="#089981" opacity="1"></rect>
<line x1="525.0" y1="158.3" x2="525.0" y2="265.8" stroke="#b2b5be" stroke-width="1.5" opacity="1"></line>
<rect x="512.0" y="176.2" width="26.0" height="71.7" rx="1.5" fill="#089981" stroke="#089981" opacity="1"></rect>
<line x1="589.8" y1="86.7" x2="589.8" y2="194.2" stroke="#b2b5be" stroke-width="1.5" opacity="1"></line>
<rect x="576.8" y="104.6" width="26.0" height="71.7" rx="1.5" fill="#089981" stroke="#089981" opacity="1"></rect>
<line x1="694.0" y1="247.9" x2="752.0" y2="247.9" stroke="#2962ff" stroke-width="2"/>
<text x="756.0" y="251.9" fill="#2962ff" font-size="10.5" font-weight="700">Entry</text>
<line x1="694.0" y1="301.7" x2="752.0" y2="301.7" stroke="#f23645" stroke-width="2"/>
<text x="756.0" y="305.7" fill="#f23645" font-size="10.5" font-weight="700">SL</text>
<line x1="694.0" y1="158.3" x2="752.0" y2="158.3" stroke="#089981" stroke-width="2"/>
<text x="756.0" y="162.3" fill="#089981" font-size="10.5" font-weight="500">TP1 (1.7R)</text>
<line x1="694.0" y1="104.6" x2="752.0" y2="104.6" stroke="#089981" stroke-width="2"/>
<text x="756.0" y="108.6" fill="#089981" font-size="10.5" font-weight="500">TP2 (2.7R)</text>
<rect x="694.0" y="247.9" width="56" height="53.8" fill="rgba(242,54,69,0.13)"/>
<rect x="694.0" y="158.3" width="56" height="89.6" fill="rgba(8,153,129,0.13)"/>
<text x="430.0" y="446" fill="#787b86" font-size="12" text-anchor="middle">The retest stop is tighter (under the reclaimed level), so the same target is a better R.</text>
</svg>