<svg xmlns="http://www.w3.org/2000/svg" viewBox="0 0 860 440" font-family="Segoe UI,Arial,sans-serif">
<rect width="860" height="440" rx="12" fill="#131722"/>
<text x="26" y="30" fill="#d1d4dc" font-size="19" font-weight="700">Weighted Confluence — weights shift with regime</text>
<text x="26" y="49" fill="#787b86" font-size="12.5">Structure vs Volume-Profile/Order-flow vs Options-flow — re-weighted by the regime</text>
<rect x="36.0" y="82.0" width="12" height="12" rx="2" fill="#2962ff"/>
<text x="54.0" y="92.0" fill="#d1d4dc" font-size="10.5">Structure / levels</text>
<rect x="186.0" y="82.0" width="12" height="12" rx="2" fill="#26c6da"/>
<text x="204.0" y="92.0" fill="#d1d4dc" font-size="10.5">Volume Profile / order-flow</text>
<rect x="336.0" y="82.0" width="12" height="12" rx="2" fill="#f0b90b"/>
<text x="354.0" y="92.0" fill="#d1d4dc" font-size="10.5">Options-flow (OI/GEX)</text>
<text x="223.0" y="114.0" fill="#d1d4dc" font-size="12.5" font-weight="700" text-anchor="middle">Balance / positive-GEX</text>
<rect x="36.0" y="120.0" width="374.0" height="240.0" rx="8" fill="#10141c" stroke="#1b2230" stroke-width="1"/>
<rect x="36.0" y="120.0" width="374.0" height="72.0" fill="#2962ff" opacity="0.78"/>
<text x="223.0" y="160.0" fill="#0c0f15" font-size="12" font-weight="700" text-anchor="middle">30%</text>
<rect x="36.0" y="192.0" width="374.0" height="72.0" fill="#26c6da" opacity="0.78"/>
<text x="223.0" y="232.0" fill="#0c0f15" font-size="12" font-weight="700" text-anchor="middle">30%</text>
<rect x="36.0" y="264.0" width="374.0" height="96.0" fill="#f0b90b" opacity="0.78"/>
<text x="223.0" y="316.0" fill="#0c0f15" font-size="12" font-weight="700" text-anchor="middle">40%</text>
<text x="36.0" y="382.0" fill="#787b86" font-size="10.5">fade the edges; options pin dominates</text>
<text x="637.0" y="114.0" fill="#d1d4dc" font-size="12.5" font-weight="700" text-anchor="middle">Trend / negative-GEX</text>
<rect x="450.0" y="120.0" width="374.0" height="240.0" rx="8" fill="#10141c" stroke="#1b2230" stroke-width="1"/>
<rect x="450.0" y="120.0" width="374.0" height="108.0" fill="#2962ff" opacity="0.78"/>
<text x="637.0" y="178.0" fill="#0c0f15" font-size="12" font-weight="700" text-anchor="middle">45%</text>
<rect x="450.0" y="228.0" width="374.0" height="84.0" fill="#26c6da" opacity="0.78"/>
<text x="637.0" y="274.0" fill="#0c0f15" font-size="12" font-weight="700" text-anchor="middle">35%</text>
<rect x="450.0" y="312.0" width="374.0" height="48.0" fill="#f0b90b" opacity="0.78"/>
<text x="637.0" y="340.0" fill="#0c0f15" font-size="12" font-weight="700" text-anchor="middle">20%</text>
<text x="450.0" y="382.0" fill="#787b86" font-size="10.5">trade the break; structure + flow lead</text>
<text x="430.0" y="428" fill="#787b86" font-size="11.5" text-anchor="middle">Same inputs, different weights: in balance, options pin leads; in trend, structure + order-flow lead.</text>
</svg>