<svg xmlns="http://www.w3.org/2000/svg" viewBox="0 0 860 460" font-family="Segoe UI,Arial,sans-serif">
<rect width="860" height="460" rx="12" fill="#131722"/>
<line x1="26" y1="58" x2="834" y2="58" stroke="#1b2230" stroke-width="1"/>
<line x1="26" y1="98" x2="834" y2="98" stroke="#1b2230" stroke-width="1"/>
<line x1="26" y1="138" x2="834" y2="138" stroke="#1b2230" stroke-width="1"/>
<line x1="26" y1="178" x2="834" y2="178" stroke="#1b2230" stroke-width="1"/>
<line x1="26" y1="218" x2="834" y2="218" stroke="#1b2230" stroke-width="1"/>
<line x1="26" y1="258" x2="834" y2="258" stroke="#1b2230" stroke-width="1"/>
<line x1="26" y1="298" x2="834" y2="298" stroke="#1b2230" stroke-width="1"/>
<text x="26" y="28" fill="#d1d4dc" font-size="19" font-weight="700">Absorption Reversal</text>
<text x="26" y="47" fill="#787b86" font-size="12.5">Heavy aggressive buying SOAKED UP at the level — big delta, no price progress → reverse</text>
<line x1="26.0" y1="79.5" x2="834.0" y2="79.5" stroke="#f0b90b" stroke-width="1.6" stroke-dasharray="True" opacity="1"></line>
<text x="29.0" y="74.5" fill="#f0b90b" font-size="11" font-weight="600" opacity="1">Level — passive sellers absorbing</text>
<path d="M627.5,151.2 L717.3,270.6" stroke="#f23645" stroke-width="2.6" fill="none" stroke-dasharray="" marker-end="url(#bar_f23645)" opacity="1"></path>
<text x="672.4" y="204.9" fill="#f23645" font-size="10.5" font-weight="600" text-anchor="middle" opacity="1">reversal</text>
<defs>
<marker id="bar_f23645" markerWidth="9" markerHeight="9" refX="6" refY="4.5" orient="auto"><path d="M0,0 L9,4.5 L0,9 z" fill="#f23645"/></marker>
</defs>
<line x1="88.8" y1="198.9" x2="88.8" y2="294.5" stroke="#b2b5be" stroke-width="1.5" opacity="1"></line>
<rect x="75.8" y="222.8" width="26.0" height="47.8" rx="1.5" fill="#089981" stroke="#089981" opacity="1"></rect>
<line x1="178.6" y1="151.2" x2="178.6" y2="246.7" stroke="#b2b5be" stroke-width="1.5" opacity="1"></line>
<rect x="165.6" y="175.1" width="26.0" height="47.8" rx="1.5" fill="#089981" stroke="#089981" opacity="1"></rect>
<line x1="268.4" y1="103.4" x2="268.4" y2="198.9" stroke="#b2b5be" stroke-width="1.5" opacity="1"></line>
<rect x="255.4" y="127.3" width="26.0" height="47.8" rx="1.5" fill="#089981" stroke="#089981" opacity="1"></rect>
<line x1="358.2" y1="79.5" x2="358.2" y2="151.2" stroke="#b2b5be" stroke-width="1.5" opacity="1"></line>
<rect x="345.2" y="103.4" width="26.0" height="23.9" rx="1.5" fill="#089981" stroke="#089981" opacity="1"></rect>
<line x1="448.0" y1="79.5" x2="448.0" y2="127.3" stroke="#b2b5be" stroke-width="1.5" opacity="1"></line>
<rect x="435.0" y="103.4" width="26.0" height="2.0" rx="1.5" fill="#089981" stroke="#089981" opacity="1"></rect>
<line x1="537.7" y1="79.5" x2="537.7" y2="151.2" stroke="#b2b5be" stroke-width="1.5" opacity="1"></line>
<rect x="524.7" y="103.4" width="26.0" height="23.9" rx="1.5" fill="#f23645" stroke="#f23645" opacity="1"></rect>
<line x1="627.5" y1="103.4" x2="627.5" y2="222.8" stroke="#b2b5be" stroke-width="1.5" opacity="1"></line>
<rect x="614.5" y="127.3" width="26.0" height="71.7" rx="1.5" fill="#f23645" stroke="#f23645" opacity="1"></rect>
<line x1="717.3" y1="175.1" x2="717.3" y2="294.5" stroke="#b2b5be" stroke-width="1.5" opacity="1"></line>
<rect x="704.3" y="198.9" width="26.0" height="71.7" rx="1.5" fill="#f23645" stroke="#f23645" opacity="1"></rect>
<text x="26" y="334" fill="#787b86" font-size="10.5">Cumulative Delta (net aggressive buy−sell)</text>
<line x1="26" y1="372.0" x2="834" y2="372.0" stroke="#1b2230" stroke-width="1"/>
<line x1="88.8" y1="368.8" x2="178.6" y2="363.4" stroke="#089981" stroke-width="2.2"/>
<line x1="178.6" y1="363.4" x2="268.4" y2="357.0" stroke="#089981" stroke-width="2.2"/>
<line x1="268.4" y1="357.0" x2="358.2" y2="350.6" stroke="#089981" stroke-width="2.2"/>
<line x1="358.2" y1="350.6" x2="448.0" y2="346.3" stroke="#089981" stroke-width="2.2"/>
<line x1="448.0" y1="346.3" x2="537.7" y2="343.1" stroke="#089981" stroke-width="2.2"/>
<line x1="537.7" y1="343.1" x2="627.5" y2="352.7" stroke="#f23645" stroke-width="2.2"/>
<line x1="627.5" y1="352.7" x2="717.3" y2="363.4" stroke="#f23645" stroke-width="2.2"/>
<circle cx="88.8" cy="368.8" r="2.2" fill="#089981"/>
<circle cx="178.6" cy="363.4" r="2.2" fill="#089981"/>
<circle cx="268.4" cy="357.0" r="2.2" fill="#089981"/>
<circle cx="358.2" cy="350.6" r="2.2" fill="#089981"/>
<circle cx="448.0" cy="346.3" r="2.2" fill="#089981"/>
<circle cx="537.7" cy="343.1" r="2.2" fill="#089981"/>
<circle cx="627.5" cy="352.7" r="2.2" fill="#089981"/>
<circle cx="717.3" cy="363.4" r="2.2" fill="#089981"/>
<text x="834" y="334" fill="#f23645" font-size="10.5" font-weight="600" text-anchor="end">big +delta, NO price progress = absorption</text>
<text x="430.0" y="446" fill="#787b86" font-size="12" text-anchor="middle">Buyers keep hitting the offer but price can't advance — a passive seller is absorbing → fade the stall.</text>
</svg>