<svg xmlns="http://www.w3.org/2000/svg" viewBox="0 0 860 460" font-family="Segoe UI,Arial,sans-serif">
<rect width="860" height="460" rx="12" fill="#131722"/>
<line x1="26" y1="58" x2="674" y2="58" stroke="#1b2230" stroke-width="1"/>
<line x1="26" y1="98" x2="674" y2="98" stroke="#1b2230" stroke-width="1"/>
<line x1="26" y1="138" x2="674" y2="138" stroke="#1b2230" stroke-width="1"/>
<line x1="26" y1="178" x2="674" y2="178" stroke="#1b2230" stroke-width="1"/>
<line x1="26" y1="218" x2="674" y2="218" stroke="#1b2230" stroke-width="1"/>
<line x1="26" y1="258" x2="674" y2="258" stroke="#1b2230" stroke-width="1"/>
<line x1="26" y1="298" x2="674" y2="298" stroke="#1b2230" stroke-width="1"/>
<line x1="26" y1="338" x2="674" y2="338" stroke="#1b2230" stroke-width="1"/>
<line x1="26" y1="378" x2="674" y2="378" stroke="#1b2230" stroke-width="1"/>
<text x="26" y="28" fill="#d1d4dc" font-size="19" font-weight="700">CHoCH-Reclaim Entry (A+ reversal)</text>
<text x="26" y="47" fill="#787b86" font-size="12.5">Sweep → CHoCH → pullback into the micro-OB (FVG fill) → confirmation candle → enter</text>
<rect x="369.4" y="158.3" width="116.8" height="28.7" fill="rgba(242,54,69,0.13)" stroke="#f23645" stroke-width="1.1" stroke-dasharray="" opacity="1" rx="2"></rect>
<text x="374.4" y="172.3" fill="#f23645" font-size="11" font-weight="600" opacity="1">micro-OB (retest)</text>
<line x1="26.0" y1="158.3" x2="674.0" y2="158.3" stroke="#f0b90b" stroke-width="1.6" stroke-dasharray="True" opacity="1"></line>
<text x="29.0" y="153.3" fill="#f0b90b" font-size="11" font-weight="600" opacity="1">Swept level → now resistance</text>
<path d="M265.8,129.7 L265.8,165.5" stroke="#f0b90b" stroke-width="2" fill="none" stroke-dasharray="" marker-end="url(#bar_f0b90b)" opacity="1"></path>
<text x="265.8" y="141.6" fill="#f0b90b" font-size="10.5" font-weight="600" text-anchor="middle" opacity="1">sweep</text>
<path d="M330.6,172.7 L330.6,230.0" stroke="#f23645" stroke-width="2.4" fill="none" stroke-dasharray="" marker-end="url(#bar_f23645)" opacity="1"></path>
<text x="330.6" y="243.3" fill="#f23645" font-size="10.5" font-weight="600" text-anchor="middle" opacity="1">CHoCH</text>
<path d="M486.1,187.0 L525.0,258.7" stroke="#f23645" stroke-width="2.6" fill="none" stroke-dasharray="" marker-end="url(#bar_f23645)" opacity="1"></path>
<text x="505.5" y="256.8" fill="#f23645" font-size="10.5" font-weight="600" text-anchor="middle" opacity="1">confirm + go</text>
<defs>
<marker id="bar_f0b90b" markerWidth="9" markerHeight="9" refX="6" refY="4.5" orient="auto"><path d="M0,0 L9,4.5 L0,9 z" fill="#f0b90b"/></marker>
<marker id="bar_f23645" markerWidth="9" markerHeight="9" refX="6" refY="4.5" orient="auto"><path d="M0,0 L9,4.5 L0,9 z" fill="#f23645"/></marker>
</defs>
<line x1="71.4" y1="230.0" x2="71.4" y2="273.0" stroke="#b2b5be" stroke-width="1.5" opacity="1"></line>
<rect x="58.4" y="244.3" width="26.0" height="14.3" rx="1.5" fill="#089981" stroke="#089981" opacity="1"></rect>
<line x1="136.2" y1="201.3" x2="136.2" y2="258.7" stroke="#b2b5be" stroke-width="1.5" opacity="1"></line>
<rect x="123.2" y="215.7" width="26.0" height="28.7" rx="1.5" fill="#089981" stroke="#089981" opacity="1"></rect>
<line x1="201.0" y1="158.3" x2="201.0" y2="230.0" stroke="#b2b5be" stroke-width="1.5" opacity="1"></line>
<rect x="188.0" y="172.7" width="26.0" height="43.0" rx="1.5" fill="#089981" stroke="#089981" opacity="1"></rect>
<line x1="265.8" y1="101.0" x2="265.8" y2="187.0" stroke="#b2b5be" stroke-width="1.5" opacity="1"></line>
<rect x="252.8" y="172.7" width="26.0" height="2.0" rx="1.5" fill="#089981" stroke="#089981" opacity="1"></rect>
<line x1="330.6" y1="158.3" x2="330.6" y2="230.0" stroke="#b2b5be" stroke-width="1.5" opacity="1"></line>
<rect x="317.6" y="172.7" width="26.0" height="43.0" rx="1.5" fill="#f23645" stroke="#f23645" opacity="1"></rect>
<line x1="395.4" y1="158.3" x2="395.4" y2="230.0" stroke="#b2b5be" stroke-width="1.5" opacity="1"></line>
<rect x="382.4" y="172.7" width="26.0" height="43.0" rx="1.5" fill="#089981" stroke="#089981" opacity="1"></rect>
<line x1="460.2" y1="158.3" x2="460.2" y2="215.7" stroke="#b2b5be" stroke-width="1.5" opacity="1"></line>
<rect x="447.2" y="172.7" width="26.0" height="28.7" rx="1.5" fill="#f23645" stroke="#f23645" opacity="1"></rect>
<line x1="525.0" y1="187.0" x2="525.0" y2="258.7" stroke="#b2b5be" stroke-width="1.5" opacity="1"></line>
<rect x="512.0" y="201.3" width="26.0" height="43.0" rx="1.5" fill="#f23645" stroke="#f23645" opacity="1"></rect>
<line x1="589.8" y1="230.0" x2="589.8" y2="301.7" stroke="#b2b5be" stroke-width="1.5" opacity="1"></line>
<rect x="576.8" y="244.3" width="26.0" height="43.0" rx="1.5" fill="#f23645" stroke="#f23645" opacity="1"></rect>
<line x1="694.0" y1="187.0" x2="752.0" y2="187.0" stroke="#2962ff" stroke-width="2"/>
<text x="756.0" y="191.0" fill="#2962ff" font-size="10.5" font-weight="700">Entry</text>
<line x1="694.0" y1="86.7" x2="752.0" y2="86.7" stroke="#f23645" stroke-width="2"/>
<text x="756.0" y="90.7" fill="#f23645" font-size="10.5" font-weight="700">SL</text>
<line x1="694.0" y1="287.3" x2="752.0" y2="287.3" stroke="#089981" stroke-width="2"/>
<text x="756.0" y="291.3" fill="#089981" font-size="10.5" font-weight="500">TP1 (1.0R)</text>
<line x1="694.0" y1="373.3" x2="752.0" y2="373.3" stroke="#089981" stroke-width="2"/>
<text x="756.0" y="377.3" fill="#089981" font-size="10.5" font-weight="500">TP2 (1.9R)</text>
<rect x="694.0" y="86.7" width="56" height="100.3" fill="rgba(242,54,69,0.13)"/>
<rect x="694.0" y="187.0" width="56" height="100.3" fill="rgba(8,153,129,0.13)"/>
<text x="430.0" y="446" fill="#787b86" font-size="12" text-anchor="middle">The A+ reversal entry: sweep → CHoCH → reclaim into the micro-OB / FVG → confirm. Stop just beyond the SWEEP extreme.</text>
</svg>