<svg xmlns="http://www.w3.org/2000/svg" viewBox="0 0 860 460" font-family="Segoe UI,Arial,sans-serif">
<rect width="860" height="460" rx="12" fill="#131722"/>
<text x="26" y="30" fill="#d1d4dc" font-size="19" font-weight="700">Failed OI Migration</text>
<text x="26" y="49" fill="#787b86" font-size="12.5">A real break MOVES the wall up; a fakeout leaves it where it was</text>
<text x="230" y="86" fill="#787b86" font-size="12" text-anchor="middle" font-weight="600">BEFORE the poke</text>
<text x="560" y="86" fill="#787b86" font-size="12" text-anchor="middle" font-weight="600">AT the poke (no migration)</text>
<text x="430.0" y="124" fill="#d1d4dc" font-size="11.5" text-anchor="middle">23 200</text>
<rect x="194" y="106" width="36" height="26" rx="3" fill="#787b86" opacity="0.8"/>
<rect x="560-0" y="106" width="40" height="26" rx="3" fill="#787b86" opacity="0.8"/>
<text x="430.0" y="164" fill="#d1d4dc" font-size="11.5" text-anchor="middle">23 100</text>
<rect x="180" y="146" width="50" height="26" rx="3" fill="#787b86" opacity="0.8"/>
<rect x="560-0" y="146" width="54" height="26" rx="3" fill="#787b86" opacity="0.8"/>
<text x="430.0" y="204" fill="#d1d4dc" font-size="11.5" text-anchor="middle">23 000 (wall)</text>
<rect x="59" y="186" width="171" height="26" rx="3" fill="#f0b90b" opacity="0.8"/>
<rect x="560-0" y="186" width="175" height="26" rx="3" fill="#f0b90b" opacity="0.8"/>
<text x="430.0" y="244" fill="#d1d4dc" font-size="11.5" text-anchor="middle">22 900</text>
<rect x="158" y="226" width="72" height="26" rx="3" fill="#787b86" opacity="0.8"/>
<rect x="560-0" y="226" width="72" height="26" rx="3" fill="#787b86" opacity="0.8"/>
<text x="430.0" y="286" fill="#f23645" font-size="12.5" text-anchor="middle" font-weight="700">✗ The 23 000 wall is STILL the wall — no fresh OI built at 23 100.</text>
<text x="430.0" y="446" fill="#787b86" font-size="11.5" text-anchor="middle">The chain did not re-price higher → the implied range is intact → the poke is a liquidity grab, not a breakout → fade.</text>
</svg>