<svg xmlns="http://www.w3.org/2000/svg" viewBox="0 0 860 460" font-family="Segoe UI,Arial,sans-serif">
<rect width="860" height="460" rx="12" fill="#131722"/>
<line x1="26" y1="58" x2="704" y2="58" stroke="#1b2230" stroke-width="1"/>
<line x1="26" y1="98" x2="704" y2="98" stroke="#1b2230" stroke-width="1"/>
<line x1="26" y1="138" x2="704" y2="138" stroke="#1b2230" stroke-width="1"/>
<line x1="26" y1="178" x2="704" y2="178" stroke="#1b2230" stroke-width="1"/>
<line x1="26" y1="218" x2="704" y2="218" stroke="#1b2230" stroke-width="1"/>
<line x1="26" y1="258" x2="704" y2="258" stroke="#1b2230" stroke-width="1"/>
<line x1="26" y1="298" x2="704" y2="298" stroke="#1b2230" stroke-width="1"/>
<line x1="26" y1="338" x2="704" y2="338" stroke="#1b2230" stroke-width="1"/>
<line x1="26" y1="378" x2="704" y2="378" stroke="#1b2230" stroke-width="1"/>
<text x="26" y="28" fill="#d1d4dc" font-size="19" font-weight="700">Poor High / Failed Auction</text>
<text x="26" y="47" fill="#787b86" font-size="12.5">A thin, unfinished 'poor high' gets revisited; price is drawn back to the naked POC</text>
<text x="718" y="50" fill="#787b86" font-size="10.5">Volume Profile</text>
<rect x="718.0" y="79.2" width="19.8" height="15.0" fill="#22303f" rx="1.5"/>
<rect x="718.0" y="142.9" width="28.6" height="15.0" fill="#22303f" rx="1.5"/>
<rect x="718.0" y="206.6" width="50.6" height="15.0" fill="#3a4f6d" rx="1.5"/>
<rect x="718.0" y="270.3" width="77.0" height="15.0" fill="#3a4f6d" rx="1.5"/>
<rect x="718.0" y="302.1" width="110.0" height="15.0" fill="#f0b90b" rx="1.5"/>
<rect x="718.0" y="334.0" width="79.2" height="15.0" fill="#3a4f6d" rx="1.5"/>
<rect x="718.0" y="397.7" width="46.2" height="15.0" fill="#3a4f6d" rx="1.5"/>
<rect x="718.0" y="461.4" width="26.4" height="15.0" fill="#22303f" rx="1.5"/>
<line x1="26" y1="214.1" x2="828.0" y2="214.1" stroke="#26c6da" stroke-width="1.3" stroke-dasharray="2 3"/>
<text x="828.0" y="217.1" fill="#26c6da" font-size="10" text-anchor="end">VAH</text>
<line x1="26" y1="373.3" x2="828.0" y2="373.3" stroke="#26c6da" stroke-width="1.3" stroke-dasharray="2 3"/>
<text x="828.0" y="376.3" fill="#26c6da" font-size="10" text-anchor="end">VAL</text>
<line x1="26" y1="309.6" x2="828.0" y2="309.6" stroke="#f0b90b" stroke-width="1.3" stroke-dasharray="2 3"/>
<text x="828.0" y="312.6" fill="#f0b90b" font-size="10" text-anchor="end">POC</text>
<line x1="26.0" y1="86.7" x2="704.0" y2="86.7" stroke="#f0b90b" stroke-width="1.6" stroke-dasharray="True" opacity="1"></line>
<text x="29.0" y="81.7" fill="#f0b90b" font-size="11" font-weight="600" opacity="1">Poor / single-print high (unfinished auction)</text>
<line x1="26.0" y1="309.6" x2="704.0" y2="309.6" stroke="#26c6da" stroke-width="1.6" stroke-dasharray="True" opacity="1"></line>
<text x="29.0" y="304.6" fill="#26c6da" font-size="11" font-weight="600" opacity="1">Naked POC → magnet &amp; target</text>
<path d="M380.1,118.5 L606.1,277.8" stroke="#f23645" stroke-width="2.6" fill="none" stroke-dasharray="" marker-end="url(#bar_f23645)" opacity="1"></path>
<text x="493.1" y="192.1" fill="#f23645" font-size="10.5" font-weight="600" text-anchor="middle" opacity="1">pulled back to the magnet</text>
<defs>
<marker id="bar_f23645" markerWidth="9" markerHeight="9" refX="6" refY="4.5" orient="auto"><path d="M0,0 L9,4.5 L0,9 z" fill="#f23645"/></marker>
</defs>
<line x1="78.7" y1="182.2" x2="78.7" y2="230.0" stroke="#b2b5be" stroke-width="1.5" opacity="1"></line>
<rect x="65.7" y="198.1" width="26.0" height="15.9" rx="1.5" fill="#089981" stroke="#089981" opacity="1"></rect>
<line x1="154.1" y1="150.4" x2="154.1" y2="214.1" stroke="#b2b5be" stroke-width="1.5" opacity="1"></line>
<rect x="141.1" y="166.3" width="26.0" height="31.9" rx="1.5" fill="#089981" stroke="#089981" opacity="1"></rect>
<line x1="229.4" y1="102.6" x2="229.4" y2="182.2" stroke="#b2b5be" stroke-width="1.5" opacity="1"></line>
<rect x="216.4" y="118.5" width="26.0" height="47.8" rx="1.5" fill="#089981" stroke="#089981" opacity="1"></rect>
<line x1="304.7" y1="86.7" x2="304.7" y2="134.4" stroke="#b2b5be" stroke-width="1.5" opacity="1"></line>
<rect x="291.7" y="102.6" width="26.0" height="15.9" rx="1.5" fill="#089981" stroke="#089981" opacity="1"></rect>
<line x1="380.1" y1="86.7" x2="380.1" y2="150.4" stroke="#b2b5be" stroke-width="1.5" opacity="1"></line>
<rect x="367.1" y="102.6" width="26.0" height="31.9" rx="1.5" fill="#f23645" stroke="#f23645" opacity="1"></rect>
<line x1="455.4" y1="118.5" x2="455.4" y2="198.1" stroke="#b2b5be" stroke-width="1.5" opacity="1"></line>
<rect x="442.4" y="134.4" width="26.0" height="47.8" rx="1.5" fill="#f23645" stroke="#f23645" opacity="1"></rect>
<line x1="530.7" y1="166.3" x2="530.7" y2="245.9" stroke="#b2b5be" stroke-width="1.5" opacity="1"></line>
<rect x="517.7" y="182.2" width="26.0" height="47.8" rx="1.5" fill="#f23645" stroke="#f23645" opacity="1"></rect>
<line x1="606.1" y1="214.1" x2="606.1" y2="309.6" stroke="#b2b5be" stroke-width="1.5" opacity="1"></line>
<rect x="593.1" y="230.0" width="26.0" height="63.7" rx="1.5" fill="#f23645" stroke="#f23645" opacity="1"></rect>
<text x="430.0" y="446" fill="#787b86" font-size="12" text-anchor="middle">A poor high (no excess, thin volume) is an unfinished auction — price returns to test it, then reverts to the naked POC.</text>
</svg>