<svg xmlns="http://www.w3.org/2000/svg" viewBox="0 0 860 460" font-family="Segoe UI,Arial,sans-serif">
<rect width="860" height="460" rx="12" fill="#131722"/>
<line x1="26" y1="58" x2="834" y2="58" stroke="#1b2230" stroke-width="1"/>
<line x1="26" y1="98" x2="834" y2="98" stroke="#1b2230" stroke-width="1"/>
<line x1="26" y1="138" x2="834" y2="138" stroke="#1b2230" stroke-width="1"/>
<line x1="26" y1="178" x2="834" y2="178" stroke="#1b2230" stroke-width="1"/>
<line x1="26" y1="218" x2="834" y2="218" stroke="#1b2230" stroke-width="1"/>
<line x1="26" y1="258" x2="834" y2="258" stroke="#1b2230" stroke-width="1"/>
<line x1="26" y1="298" x2="834" y2="298" stroke="#1b2230" stroke-width="1"/>
<line x1="26" y1="338" x2="834" y2="338" stroke="#1b2230" stroke-width="1"/>
<line x1="26" y1="378" x2="834" y2="378" stroke="#1b2230" stroke-width="1"/>
<text x="26" y="28" fill="#d1d4dc" font-size="19" font-weight="700">Swing Failure Pattern (SFP)</text>
<text x="26" y="47" fill="#787b86" font-size="12.5">Take the prior swing high's liquidity, then close back below it → reverse down</text>
<rect x="460.6" y="86.7" width="132.8" height="63.7" fill="rgba(242,54,69,0.13)" stroke="#f23645" stroke-width="1.1" stroke-dasharray="" opacity="1" rx="2"></rect>
<text x="465.6" y="100.7" fill="#f23645" font-size="11" font-weight="600" opacity="1">failed swing (SFP)</text>
<line x1="26.0" y1="150.4" x2="834.0" y2="150.4" stroke="#f0b90b" stroke-width="1.6" stroke-dasharray="True" opacity="1"></line>
<text x="29.0" y="145.4" fill="#f0b90b" font-size="11" font-weight="600" opacity="1">Prior swing high (buy-side liquidity)</text>
<path d="M486.6,110.6 L486.6,150.4" stroke="#f0b90b" stroke-width="2" fill="none" stroke-dasharray="" marker-end="url(#bar_f0b90b)" opacity="1"></path>
<text x="486.6" y="124.5" fill="#f0b90b" font-size="10.5" font-weight="600" text-anchor="middle" opacity="1">sweep high</text>
<path d="M567.4,182.2 L648.2,261.9" stroke="#f23645" stroke-width="2.6" fill="none" stroke-dasharray="" marker-end="url(#bar_f23645)" opacity="1"></path>
<text x="607.8" y="216.0" fill="#f23645" font-size="10.5" font-weight="600" text-anchor="middle" opacity="1">close back below</text>
<defs>
<marker id="bar_f0b90b" markerWidth="9" markerHeight="9" refX="6" refY="4.5" orient="auto"><path d="M0,0 L9,4.5 L0,9 z" fill="#f0b90b"/></marker>
<marker id="bar_f23645" markerWidth="9" markerHeight="9" refX="6" refY="4.5" orient="auto"><path d="M0,0 L9,4.5 L0,9 z" fill="#f23645"/></marker>
</defs>
<line x1="82.6" y1="309.6" x2="82.6" y2="373.3" stroke="#b2b5be" stroke-width="1.5" opacity="1"></line>
<rect x="69.6" y="325.6" width="26.0" height="31.9" rx="1.5" fill="#089981" stroke="#089981" opacity="1"></rect>
<line x1="163.4" y1="261.9" x2="163.4" y2="341.5" stroke="#b2b5be" stroke-width="1.5" opacity="1"></line>
<rect x="150.4" y="277.8" width="26.0" height="47.8" rx="1.5" fill="#089981" stroke="#089981" opacity="1"></rect>
<line x1="244.2" y1="214.1" x2="244.2" y2="293.7" stroke="#b2b5be" stroke-width="1.5" opacity="1"></line>
<rect x="231.2" y="230.0" width="26.0" height="47.8" rx="1.5" fill="#089981" stroke="#089981" opacity="1"></rect>
<line x1="325.0" y1="166.3" x2="325.0" y2="245.9" stroke="#b2b5be" stroke-width="1.5" opacity="1"></line>
<rect x="312.0" y="182.2" width="26.0" height="47.8" rx="1.5" fill="#089981" stroke="#089981" opacity="1"></rect>
<line x1="405.8" y1="150.4" x2="405.8" y2="198.1" stroke="#b2b5be" stroke-width="1.5" opacity="1"></line>
<rect x="392.8" y="166.3" width="26.0" height="15.9" rx="1.5" fill="#089981" stroke="#089981" opacity="1"></rect>
<line x1="486.6" y1="86.7" x2="486.6" y2="182.2" stroke="#b2b5be" stroke-width="1.5" opacity="1"></line>
<rect x="473.6" y="166.3" width="26.0" height="2.0" rx="1.5" fill="#089981" stroke="#089981" opacity="1"></rect>
<line x1="567.4" y1="150.4" x2="567.4" y2="230.0" stroke="#b2b5be" stroke-width="1.5" opacity="1"></line>
<rect x="554.4" y="166.3" width="26.0" height="47.8" rx="1.5" fill="#f23645" stroke="#f23645" opacity="1"></rect>
<line x1="648.2" y1="198.1" x2="648.2" y2="277.8" stroke="#b2b5be" stroke-width="1.5" opacity="1"></line>
<rect x="635.2" y="214.1" width="26.0" height="47.8" rx="1.5" fill="#f23645" stroke="#f23645" opacity="1"></rect>
<line x1="729.0" y1="245.9" x2="729.0" y2="325.6" stroke="#b2b5be" stroke-width="1.5" opacity="1"></line>
<rect x="716.0" y="261.9" width="26.0" height="47.8" rx="1.5" fill="#f23645" stroke="#f23645" opacity="1"></rect>
<text x="430.0" y="446" fill="#787b86" font-size="12" text-anchor="middle">The high is taken but not held — a single candle that sweeps and closes back inside = short the failure.</text>
</svg>