<svg xmlns="http://www.w3.org/2000/svg" viewBox="0 0 860 460" font-family="Segoe UI,Arial,sans-serif">
<rect width="860" height="460" rx="12" fill="#131722"/>
<line x1="26" y1="58" x2="674" y2="58" stroke="#1b2230" stroke-width="1"/>
<line x1="26" y1="98" x2="674" y2="98" stroke="#1b2230" stroke-width="1"/>
<line x1="26" y1="138" x2="674" y2="138" stroke="#1b2230" stroke-width="1"/>
<line x1="26" y1="178" x2="674" y2="178" stroke="#1b2230" stroke-width="1"/>
<line x1="26" y1="218" x2="674" y2="218" stroke="#1b2230" stroke-width="1"/>
<line x1="26" y1="258" x2="674" y2="258" stroke="#1b2230" stroke-width="1"/>
<line x1="26" y1="298" x2="674" y2="298" stroke="#1b2230" stroke-width="1"/>
<line x1="26" y1="338" x2="674" y2="338" stroke="#1b2230" stroke-width="1"/>
<line x1="26" y1="378" x2="674" y2="378" stroke="#1b2230" stroke-width="1"/>
<text x="26" y="28" fill="#d1d4dc" font-size="19" font-weight="700">Reversal Stop &amp; Target Geometry</text>
<text x="26" y="47" fill="#787b86" font-size="12.5">SL just beyond the SWEEP extreme (+ATR); targets ladder to the range mid/POC then the opposite edge</text>
<rect x="383.8" y="152.8" width="52.0" height="22.1" fill="rgba(242,54,69,0.13)" stroke="#f23645" stroke-width="1.1" stroke-dasharray="" opacity="1" rx="2"></rect>
<text x="388.8" y="166.8" fill="#f23645" font-size="11" font-weight="600" opacity="1">failed-retest entry</text>
<line x1="26.0" y1="152.8" x2="674.0" y2="152.8" stroke="#f0b90b" stroke-width="1.6" stroke-dasharray="True" opacity="1"></line>
<text x="29.0" y="147.8" fill="#f0b90b" font-size="11" font-weight="600" opacity="1">Swept level (now resistance)</text>
<line x1="26.0" y1="86.7" x2="674.0" y2="86.7" stroke="#f23645" stroke-width="1.6" stroke-dasharray="True" opacity="1"></line>
<text x="29.0" y="81.7" fill="#f23645" font-size="11" font-weight="600" opacity="1">Beyond the sweep → SL anchor (+ATR buffer)</text>
<line x1="26.0" y1="263.1" x2="674.0" y2="263.1" stroke="#26c6da" stroke-width="1.6" stroke-dasharray="True" opacity="1"></line>
<text x="29.0" y="258.1" fill="#26c6da" font-size="11" font-weight="600" opacity="1">TP1: range mid / POC</text>
<line x1="26.0" y1="329.2" x2="674.0" y2="329.2" stroke="#26c6da" stroke-width="1.6" stroke-dasharray="True" opacity="1"></line>
<text x="29.0" y="324.2" fill="#26c6da" font-size="11" font-weight="600" opacity="1">TP2: opposite edge / liquidity</text>
<text x="246.3" y="126.8" fill="#787b86" font-size="10.5" font-weight="500" text-anchor="middle" opacity="1">the RANGE is the measured move — fade across the box</text>
<line x1="60.9" y1="274.1" x2="60.9" y2="318.2" stroke="#b2b5be" stroke-width="1.5" opacity="1"></line>
<rect x="47.9" y="285.1" width="26.0" height="22.1" rx="1.5" fill="#089981" stroke="#089981" opacity="1"></rect>
<line x1="110.7" y1="241.0" x2="110.7" y2="296.2" stroke="#b2b5be" stroke-width="1.5" opacity="1"></line>
<rect x="97.7" y="252.1" width="26.0" height="33.1" rx="1.5" fill="#089981" stroke="#089981" opacity="1"></rect>
<line x1="160.6" y1="196.9" x2="160.6" y2="263.1" stroke="#b2b5be" stroke-width="1.5" opacity="1"></line>
<rect x="147.6" y="207.9" width="26.0" height="44.1" rx="1.5" fill="#089981" stroke="#089981" opacity="1"></rect>
<line x1="210.4" y1="163.8" x2="210.4" y2="219.0" stroke="#b2b5be" stroke-width="1.5" opacity="1"></line>
<rect x="197.4" y="174.9" width="26.0" height="33.1" rx="1.5" fill="#089981" stroke="#089981" opacity="1"></rect>
<line x1="260.3" y1="152.8" x2="260.3" y2="185.9" stroke="#b2b5be" stroke-width="1.5" opacity="1"></line>
<rect x="247.3" y="163.8" width="26.0" height="11.0" rx="1.5" fill="#089981" stroke="#089981" opacity="1"></rect>
<line x1="310.1" y1="97.7" x2="310.1" y2="174.9" stroke="#b2b5be" stroke-width="1.5" opacity="1"></line>
<rect x="297.1" y="163.8" width="26.0" height="2.0" rx="1.5" fill="#089981" stroke="#089981" opacity="1"></rect>
<line x1="360.0" y1="152.8" x2="360.0" y2="207.9" stroke="#b2b5be" stroke-width="1.5" opacity="1"></line>
<rect x="347.0" y="163.8" width="26.0" height="33.1" rx="1.5" fill="#f23645" stroke="#f23645" opacity="1"></rect>
<line x1="409.8" y1="141.8" x2="409.8" y2="207.9" stroke="#b2b5be" stroke-width="1.5" opacity="1"></line>
<rect x="396.8" y="185.9" width="26.0" height="11.0" rx="1.5" fill="#089981" stroke="#089981" opacity="1"></rect>
<line x1="459.7" y1="174.9" x2="459.7" y2="230.0" stroke="#b2b5be" stroke-width="1.5" opacity="1"></line>
<rect x="446.7" y="185.9" width="26.0" height="33.1" rx="1.5" fill="#f23645" stroke="#f23645" opacity="1"></rect>
<line x1="509.5" y1="207.9" x2="509.5" y2="274.1" stroke="#b2b5be" stroke-width="1.5" opacity="1"></line>
<rect x="496.5" y="219.0" width="26.0" height="44.1" rx="1.5" fill="#f23645" stroke="#f23645" opacity="1"></rect>
<line x1="559.4" y1="252.1" x2="559.4" y2="318.2" stroke="#b2b5be" stroke-width="1.5" opacity="1"></line>
<rect x="546.4" y="263.1" width="26.0" height="44.1" rx="1.5" fill="#f23645" stroke="#f23645" opacity="1"></rect>
<line x1="609.2" y1="296.2" x2="609.2" y2="351.3" stroke="#b2b5be" stroke-width="1.5" opacity="1"></line>
<rect x="596.2" y="307.2" width="26.0" height="33.1" rx="1.5" fill="#f23645" stroke="#f23645" opacity="1"></rect>
<line x1="694.0" y1="174.9" x2="752.0" y2="174.9" stroke="#2962ff" stroke-width="2"/>
<text x="756.0" y="178.9" fill="#2962ff" font-size="10.5" font-weight="700">Entry</text>
<line x1="694.0" y1="86.7" x2="752.0" y2="86.7" stroke="#f23645" stroke-width="2"/>
<text x="756.0" y="90.7" fill="#f23645" font-size="10.5" font-weight="700">SL</text>
<line x1="694.0" y1="263.1" x2="752.0" y2="263.1" stroke="#089981" stroke-width="2"/>
<text x="756.0" y="267.1" fill="#089981" font-size="10.5" font-weight="500">TP1 (1.0R)</text>
<line x1="694.0" y1="329.2" x2="752.0" y2="329.2" stroke="#089981" stroke-width="2"/>
<text x="756.0" y="333.2" fill="#089981" font-size="10.5" font-weight="500">TP2 (1.8R)</text>
<line x1="694.0" y1="373.3" x2="752.0" y2="373.3" stroke="#089981" stroke-width="2"/>
<text x="756.0" y="377.3" fill="#089981" font-size="10.5" font-weight="500">TP3 (trail) (2.2R)</text>
<rect x="694.0" y="86.7" width="56" height="88.2" fill="rgba(242,54,69,0.13)"/>
<rect x="694.0" y="174.9" width="56" height="88.2" fill="rgba(8,153,129,0.13)"/>
<text x="430.0" y="446" fill="#787b86" font-size="12" text-anchor="middle">Risk to just beyond where the IDEA is wrong (the sweep extreme); targets are the structural magnets back inside.</text>
</svg>