<svg xmlns="http://www.w3.org/2000/svg" viewBox="0 0 860 460" font-family="Segoe UI,Arial,sans-serif">
<rect width="860" height="460" rx="12" fill="#131722"/>
<line x1="26" y1="58" x2="834" y2="58" stroke="#1b2230" stroke-width="1"/>
<line x1="26" y1="98" x2="834" y2="98" stroke="#1b2230" stroke-width="1"/>
<line x1="26" y1="138" x2="834" y2="138" stroke="#1b2230" stroke-width="1"/>
<line x1="26" y1="178" x2="834" y2="178" stroke="#1b2230" stroke-width="1"/>
<line x1="26" y1="218" x2="834" y2="218" stroke="#1b2230" stroke-width="1"/>
<line x1="26" y1="258" x2="834" y2="258" stroke="#1b2230" stroke-width="1"/>
<line x1="26" y1="298" x2="834" y2="298" stroke="#1b2230" stroke-width="1"/>
<text x="26" y="28" fill="#d1d4dc" font-size="19" font-weight="700">SWEEP-AND-GO (stand aside)</text>
<text x="26" y="47" fill="#787b86" font-size="12.5">Same poke — but it CLOSES beyond and accepts → it is a real break, not a reversal</text>
<line x1="26.0" y1="208.5" x2="834.0" y2="208.5" stroke="#f0b90b" stroke-width="1.6" stroke-dasharray="True" opacity="1"></line>
<text x="29.0" y="203.5" fill="#f0b90b" font-size="11" font-weight="600" opacity="1">Level (broken &amp; accepted)</text>
<path d="M399.7,208.5 L399.7,165.5" stroke="#089981" stroke-width="2.8" fill="none" stroke-dasharray="" marker-end="url(#bar_089981)" opacity="1"></path>
<text x="399.7" y="181.0" fill="#089981" font-size="10.5" font-weight="600" text-anchor="middle" opacity="1">conviction close</text>
<path d="M601.7,131.1 L702.7,88.1" stroke="#089981" stroke-width="2.6" fill="none" stroke-dasharray="" marker-end="url(#bar_089981)" opacity="1"></path>
<text x="652.2" y="103.6" fill="#089981" font-size="10.5" font-weight="600" text-anchor="middle" opacity="1">accept + run</text>
<defs>
<marker id="bar_089981" markerWidth="9" markerHeight="9" refX="6" refY="4.5" orient="auto"><path d="M0,0 L9,4.5 L0,9 z" fill="#089981"/></marker>
</defs>
<line x1="96.7" y1="260.1" x2="96.7" y2="294.5" stroke="#b2b5be" stroke-width="1.5" opacity="1"></line>
<rect x="83.7" y="268.7" width="26.0" height="17.2" rx="1.5" fill="#089981" stroke="#089981" opacity="1"></rect>
<line x1="197.7" y1="234.3" x2="197.7" y2="277.3" stroke="#b2b5be" stroke-width="1.5" opacity="1"></line>
<rect x="184.7" y="242.9" width="26.0" height="25.8" rx="1.5" fill="#089981" stroke="#089981" opacity="1"></rect>
<line x1="298.7" y1="208.5" x2="298.7" y2="251.5" stroke="#b2b5be" stroke-width="1.5" opacity="1"></line>
<rect x="285.7" y="217.1" width="26.0" height="25.8" rx="1.5" fill="#089981" stroke="#089981" opacity="1"></rect>
<line x1="399.7" y1="156.9" x2="399.7" y2="225.7" stroke="#b2b5be" stroke-width="1.5" opacity="1"></line>
<rect x="386.7" y="165.5" width="26.0" height="51.6" rx="1.5" fill="#089981" stroke="#089981" opacity="1"></rect>
<line x1="500.7" y1="131.1" x2="500.7" y2="174.1" stroke="#b2b5be" stroke-width="1.5" opacity="1"></line>
<rect x="487.7" y="139.7" width="26.0" height="25.8" rx="1.5" fill="#089981" stroke="#089981" opacity="1"></rect>
<line x1="601.7" y1="105.3" x2="601.7" y2="148.3" stroke="#b2b5be" stroke-width="1.5" opacity="1"></line>
<rect x="588.7" y="113.9" width="26.0" height="25.8" rx="1.5" fill="#089981" stroke="#089981" opacity="1"></rect>
<line x1="702.7" y1="79.5" x2="702.7" y2="122.5" stroke="#b2b5be" stroke-width="1.5" opacity="1"></line>
<rect x="689.7" y="88.1" width="26.0" height="25.8" rx="1.5" fill="#089981" stroke="#089981" opacity="1"></rect>
<text x="26" y="334" fill="#787b86" font-size="10.5">Cumulative Delta (net aggressive buy−sell)</text>
<line x1="26" y1="372.0" x2="834" y2="372.0" stroke="#1b2230" stroke-width="1"/>
<line x1="96.7" y1="370.0" x2="197.7" y2="367.0" stroke="#089981" stroke-width="2.2"/>
<line x1="197.7" y1="367.0" x2="298.7" y2="363.0" stroke="#089981" stroke-width="2.2"/>
<line x1="298.7" y1="363.0" x2="399.7" y2="358.0" stroke="#089981" stroke-width="2.2"/>
<line x1="399.7" y1="358.0" x2="500.7" y2="353.1" stroke="#089981" stroke-width="2.2"/>
<line x1="500.7" y1="353.1" x2="601.7" y2="348.1" stroke="#089981" stroke-width="2.2"/>
<line x1="601.7" y1="348.1" x2="702.7" y2="343.1" stroke="#089981" stroke-width="2.2"/>
<circle cx="96.7" cy="370.0" r="2.2" fill="#089981"/>
<circle cx="197.7" cy="367.0" r="2.2" fill="#089981"/>
<circle cx="298.7" cy="363.0" r="2.2" fill="#089981"/>
<circle cx="399.7" cy="358.0" r="2.2" fill="#089981"/>
<circle cx="500.7" cy="353.1" r="2.2" fill="#089981"/>
<circle cx="601.7" cy="348.1" r="2.2" fill="#089981"/>
<circle cx="702.7" cy="343.1" r="2.2" fill="#089981"/>
<text x="834" y="334" fill="#089981" font-size="10.5" font-weight="600" text-anchor="end">delta EXPANDS with price = initiative</text>
<text x="430.0" y="446" fill="#787b86" font-size="12" text-anchor="middle">This is NOT your trade — the sweep kept going (sweep-and-GO). Do not fade a real break.</text>
</svg>