<svg xmlns="http://www.w3.org/2000/svg" viewBox="0 0 860 460" font-family="Segoe UI,Arial,sans-serif">
<rect width="860" height="460" rx="12" fill="#131722"/>
<line x1="26" y1="58" x2="834" y2="58" stroke="#1b2230" stroke-width="1"/>
<line x1="26" y1="98" x2="834" y2="98" stroke="#1b2230" stroke-width="1"/>
<line x1="26" y1="138" x2="834" y2="138" stroke="#1b2230" stroke-width="1"/>
<line x1="26" y1="178" x2="834" y2="178" stroke="#1b2230" stroke-width="1"/>
<line x1="26" y1="218" x2="834" y2="218" stroke="#1b2230" stroke-width="1"/>
<line x1="26" y1="258" x2="834" y2="258" stroke="#1b2230" stroke-width="1"/>
<line x1="26" y1="298" x2="834" y2="298" stroke="#1b2230" stroke-width="1"/>
<line x1="26" y1="338" x2="834" y2="338" stroke="#1b2230" stroke-width="1"/>
<line x1="26" y1="378" x2="834" y2="378" stroke="#1b2230" stroke-width="1"/>
<text x="26" y="28" fill="#d1d4dc" font-size="19" font-weight="700">Upthrust After Distribution (UTAD)</text>
<text x="26" y="47" fill="#787b86" font-size="12.5">A stab ABOVE range resistance that fails back inside → markdown</text>
<rect x="492.1" y="86.7" width="52.0" height="26.1" fill="rgba(242,54,69,0.13)" stroke="#f23645" stroke-width="1.1" stroke-dasharray="" opacity="1" rx="2"></rect>
<text x="497.1" y="100.7" fill="#f23645" font-size="11" font-weight="600" opacity="1">upthrust</text>
<line x1="26.0" y1="112.7" x2="834.0" y2="112.7" stroke="#f0b90b" stroke-width="1.6" stroke-dasharray="True" opacity="1"></line>
<text x="29.0" y="107.7" fill="#f0b90b" font-size="11" font-weight="600" opacity="1">Resistance / range high (the upthrust level)</text>
<line x1="26.0" y1="269.1" x2="834.0" y2="269.1" stroke="#26c6da" stroke-width="1.6" stroke-dasharray="True" opacity="1"></line>
<text x="29.0" y="264.1" fill="#26c6da" font-size="11" font-weight="600" opacity="1">Support / range low → reversal target</text>
<path d="M518.1,93.2 L518.1,112.7" stroke="#f0b90b" stroke-width="2" fill="none" stroke-dasharray="" marker-end="url(#bar_f0b90b)" opacity="1"></path>
<text x="518.1" y="97.0" fill="#f0b90b" font-size="10.5" font-weight="600" text-anchor="middle" opacity="1">stab up</text>
<path d="M591.6,256.1 L738.5,360.3" stroke="#f23645" stroke-width="2.6" fill="none" stroke-dasharray="" marker-end="url(#bar_f23645)" opacity="1"></path>
<text x="665.1" y="302.2" fill="#f23645" font-size="10.5" font-weight="600" text-anchor="middle" opacity="1">markdown</text>
<defs>
<marker id="bar_f0b90b" markerWidth="9" markerHeight="9" refX="6" refY="4.5" orient="auto"><path d="M0,0 L9,4.5 L0,9 z" fill="#f0b90b"/></marker>
<marker id="bar_f23645" markerWidth="9" markerHeight="9" refX="6" refY="4.5" orient="auto"><path d="M0,0 L9,4.5 L0,9 z" fill="#f23645"/></marker>
</defs>
<line x1="77.4" y1="138.8" x2="77.4" y2="203.9" stroke="#b2b5be" stroke-width="1.5" opacity="1"></line>
<rect x="64.4" y="151.8" width="26.0" height="39.1" rx="1.5" fill="#089981" stroke="#089981" opacity="1"></rect>
<line x1="150.9" y1="125.8" x2="150.9" y2="217.0" stroke="#b2b5be" stroke-width="1.5" opacity="1"></line>
<rect x="137.9" y="151.8" width="26.0" height="52.1" rx="1.5" fill="#f23645" stroke="#f23645" opacity="1"></rect>
<line x1="224.3" y1="151.8" x2="224.3" y2="230.0" stroke="#b2b5be" stroke-width="1.5" opacity="1"></line>
<rect x="211.3" y="164.8" width="26.0" height="39.1" rx="1.5" fill="#089981" stroke="#089981" opacity="1"></rect>
<line x1="297.8" y1="138.8" x2="297.8" y2="256.1" stroke="#b2b5be" stroke-width="1.5" opacity="1"></line>
<rect x="284.8" y="164.8" width="26.0" height="78.2" rx="1.5" fill="#f23645" stroke="#f23645" opacity="1"></rect>
<line x1="371.2" y1="125.8" x2="371.2" y2="256.1" stroke="#b2b5be" stroke-width="1.5" opacity="1"></line>
<rect x="358.2" y="138.8" width="26.0" height="104.2" rx="1.5" fill="#089981" stroke="#089981" opacity="1"></rect>
<line x1="444.7" y1="112.7" x2="444.7" y2="164.8" stroke="#b2b5be" stroke-width="1.5" opacity="1"></line>
<rect x="431.7" y="138.8" width="26.0" height="13.0" rx="1.5" fill="#f23645" stroke="#f23645" opacity="1"></rect>
<line x1="518.1" y1="86.7" x2="518.1" y2="164.8" stroke="#b2b5be" stroke-width="1.5" opacity="1"></line>
<rect x="505.1" y="151.8" width="26.0" height="91.2" rx="1.5" fill="#f23645" stroke="#f23645" opacity="1"></rect>
<line x1="591.6" y1="230.0" x2="591.6" y2="295.2" stroke="#b2b5be" stroke-width="1.5" opacity="1"></line>
<rect x="578.6" y="243.0" width="26.0" height="39.1" rx="1.5" fill="#f23645" stroke="#f23645" opacity="1"></rect>
<line x1="665.1" y1="269.1" x2="665.1" y2="334.2" stroke="#b2b5be" stroke-width="1.5" opacity="1"></line>
<rect x="652.1" y="282.1" width="26.0" height="39.1" rx="1.5" fill="#f23645" stroke="#f23645" opacity="1"></rect>
<line x1="738.5" y1="308.2" x2="738.5" y2="373.3" stroke="#b2b5be" stroke-width="1.5" opacity="1"></line>
<rect x="725.5" y="321.2" width="26.0" height="39.1" rx="1.5" fill="#f23645" stroke="#f23645" opacity="1"></rect>
<text x="430.0" y="446" fill="#787b86" font-size="12" text-anchor="middle">UTAD: a false break above resistance that closes back inside → the reversal short (mirror of the spring).</text>
</svg>