<svg xmlns="http://www.w3.org/2000/svg" viewBox="0 0 860 460" font-family="Segoe UI,Arial,sans-serif">
<rect width="860" height="460" rx="12" fill="#131722"/>
<line x1="26" y1="58" x2="834" y2="58" stroke="#1b2230" stroke-width="1"/>
<line x1="26" y1="98" x2="834" y2="98" stroke="#1b2230" stroke-width="1"/>
<line x1="26" y1="138" x2="834" y2="138" stroke="#1b2230" stroke-width="1"/>
<line x1="26" y1="178" x2="834" y2="178" stroke="#1b2230" stroke-width="1"/>
<line x1="26" y1="218" x2="834" y2="218" stroke="#1b2230" stroke-width="1"/>
<line x1="26" y1="258" x2="834" y2="258" stroke="#1b2230" stroke-width="1"/>
<line x1="26" y1="298" x2="834" y2="298" stroke="#1b2230" stroke-width="1"/>
<line x1="26" y1="338" x2="834" y2="338" stroke="#1b2230" stroke-width="1"/>
<line x1="26" y1="378" x2="834" y2="378" stroke="#1b2230" stroke-width="1"/>
<text x="26" y="28" fill="#d1d4dc" font-size="19" font-weight="700">Wyckoff Spring</text>
<text x="26" y="47" fill="#787b86" font-size="12.5">A final shakeout BELOW range support that immediately reclaims → markup</text>
<rect x="451.1" y="309.6" width="119.3" height="63.7" fill="rgba(8,153,129,0.13)" stroke="#089981" stroke-width="1.1" stroke-dasharray="" opacity="1" rx="2"></rect>
<text x="456.1" y="323.6" fill="#089981" font-size="11" font-weight="600" opacity="1">spring (shakeout)</text>
<line x1="26.0" y1="309.6" x2="834.0" y2="309.6" stroke="#26c6da" stroke-width="1.6" stroke-dasharray="True" opacity="1"></line>
<text x="29.0" y="304.6" fill="#26c6da" font-size="11" font-weight="600" opacity="1">Support / range low (the spring level)</text>
<line x1="26.0" y1="118.5" x2="834.0" y2="118.5" stroke="#f0b90b" stroke-width="1.6" stroke-dasharray="True" opacity="1"></line>
<text x="29.0" y="113.5" fill="#f0b90b" font-size="11" font-weight="600" opacity="1">Range high → reversal target</text>
<path d="M477.1,333.5 L477.1,373.3" stroke="#f0b90b" stroke-width="2" fill="none" stroke-dasharray="" marker-end="url(#bar_f0b90b)" opacity="1"></path>
<text x="477.1" y="364.4" fill="#f0b90b" font-size="10.5" font-weight="600" text-anchor="middle" opacity="1">shake out</text>
<path d="M611.8,214.1 L746.5,102.6" stroke="#089981" stroke-width="2.6" fill="none" stroke-dasharray="" marker-end="url(#bar_089981)" opacity="1"></path>
<text x="679.1" y="152.3" fill="#089981" font-size="10.5" font-weight="600" text-anchor="middle" opacity="1">markup</text>
<defs>
<marker id="bar_089981" markerWidth="9" markerHeight="9" refX="6" refY="4.5" orient="auto"><path d="M0,0 L9,4.5 L0,9 z" fill="#089981"/></marker>
<marker id="bar_f0b90b" markerWidth="9" markerHeight="9" refX="6" refY="4.5" orient="auto"><path d="M0,0 L9,4.5 L0,9 z" fill="#f0b90b"/></marker>
</defs>
<line x1="73.1" y1="150.4" x2="73.1" y2="230.0" stroke="#b2b5be" stroke-width="1.5" opacity="1"></line>
<rect x="60.1" y="166.3" width="26.0" height="47.8" rx="1.5" fill="#089981" stroke="#089981" opacity="1"></rect>
<line x1="140.5" y1="134.4" x2="140.5" y2="245.9" stroke="#b2b5be" stroke-width="1.5" opacity="1"></line>
<rect x="127.5" y="166.3" width="26.0" height="63.7" rx="1.5" fill="#f23645" stroke="#f23645" opacity="1"></rect>
<line x1="207.8" y1="198.1" x2="207.8" y2="293.7" stroke="#b2b5be" stroke-width="1.5" opacity="1"></line>
<rect x="194.8" y="214.1" width="26.0" height="15.9" rx="1.5" fill="#089981" stroke="#089981" opacity="1"></rect>
<line x1="275.1" y1="150.4" x2="275.1" y2="277.8" stroke="#b2b5be" stroke-width="1.5" opacity="1"></line>
<rect x="262.1" y="166.3" width="26.0" height="47.8" rx="1.5" fill="#089981" stroke="#089981" opacity="1"></rect>
<line x1="342.5" y1="134.4" x2="342.5" y2="293.7" stroke="#b2b5be" stroke-width="1.5" opacity="1"></line>
<rect x="329.5" y="166.3" width="26.0" height="111.5" rx="1.5" fill="#f23645" stroke="#f23645" opacity="1"></rect>
<line x1="409.8" y1="245.9" x2="409.8" y2="309.6" stroke="#b2b5be" stroke-width="1.5" opacity="1"></line>
<rect x="396.8" y="277.8" width="26.0" height="15.9" rx="1.5" fill="#f23645" stroke="#f23645" opacity="1"></rect>
<line x1="477.1" y1="261.9" x2="477.1" y2="373.3" stroke="#b2b5be" stroke-width="1.5" opacity="1"></line>
<rect x="464.1" y="277.8" width="26.0" height="15.9" rx="1.5" fill="#089981" stroke="#089981" opacity="1"></rect>
<line x1="544.5" y1="214.1" x2="544.5" y2="293.7" stroke="#b2b5be" stroke-width="1.5" opacity="1"></line>
<rect x="531.5" y="230.0" width="26.0" height="47.8" rx="1.5" fill="#089981" stroke="#089981" opacity="1"></rect>
<line x1="611.8" y1="166.3" x2="611.8" y2="245.9" stroke="#b2b5be" stroke-width="1.5" opacity="1"></line>
<rect x="598.8" y="182.2" width="26.0" height="47.8" rx="1.5" fill="#089981" stroke="#089981" opacity="1"></rect>
<line x1="679.1" y1="118.5" x2="679.1" y2="198.1" stroke="#b2b5be" stroke-width="1.5" opacity="1"></line>
<rect x="666.1" y="134.4" width="26.0" height="47.8" rx="1.5" fill="#089981" stroke="#089981" opacity="1"></rect>
<line x1="746.5" y1="86.7" x2="746.5" y2="150.4" stroke="#b2b5be" stroke-width="1.5" opacity="1"></line>
<rect x="733.5" y="102.6" width="26.0" height="31.9" rx="1.5" fill="#089981" stroke="#089981" opacity="1"></rect>
<text x="430.0" y="446" fill="#787b86" font-size="12" text-anchor="middle">Wyckoff Spring: the last weak hands are shaken out below support, then price reclaims → the reversal long.</text>
</svg>