<svg xmlns="http://www.w3.org/2000/svg" viewBox="0 0 860 420" font-family="Segoe UI,Arial,sans-serif">
<rect width="860" height="420" rx="12" fill="#131722"/>
<text x="26" y="30" fill="#d1d4dc" font-size="19" font-weight="700">Expiry-Day Theta — late ORB buying is theta-hostile</text>
<text x="26" y="49" fill="#787b86" font-size="12.5">Intraday premium decay steepens on Nifty Tuesday weekly-expiry afternoons</text>
<line x1="76" y1="92" x2="76" y2="330" stroke="#787b86" stroke-width="1.2"/>
<line x1="76" y1="330" x2="804" y2="330" stroke="#787b86" stroke-width="1.2"/>
<text x="34" y="211.0" fill="#787b86" font-size="10.5" transform="rotate(-90 34 211.0)" text-anchor="middle">premium (time value)</text>
<line x1="76.0" y1="330.0" x2="76.0" y2="335.0" stroke="#787b86" stroke-width="1"/>
<text x="76.0" y="350.0" fill="#787b86" font-size="9.5" text-anchor="middle">9:15</text>
<line x1="265.3" y1="330.0" x2="265.3" y2="335.0" stroke="#787b86" stroke-width="1"/>
<text x="265.3" y="350.0" fill="#787b86" font-size="9.5" text-anchor="middle">11:00</text>
<line x1="381.8" y1="330.0" x2="381.8" y2="335.0" stroke="#787b86" stroke-width="1"/>
<text x="381.8" y="350.0" fill="#787b86" font-size="9.5" text-anchor="middle">12:30</text>
<line x1="498.2" y1="330.0" x2="498.2" y2="335.0" stroke="#787b86" stroke-width="1"/>
<text x="498.2" y="350.0" fill="#787b86" font-size="9.5" text-anchor="middle">1:30</text>
<line x1="556.5" y1="330.0" x2="556.5" y2="335.0" stroke="#787b86" stroke-width="1"/>
<text x="556.5" y="350.0" fill="#787b86" font-size="9.5" text-anchor="middle">2:00</text>
<line x1="614.7" y1="330.0" x2="614.7" y2="335.0" stroke="#787b86" stroke-width="1"/>
<text x="614.7" y="350.0" fill="#787b86" font-size="9.5" text-anchor="middle">2:30</text>
<line x1="702.1" y1="330.0" x2="702.1" y2="335.0" stroke="#787b86" stroke-width="1"/>
<text x="702.1" y="350.0" fill="#787b86" font-size="9.5" text-anchor="middle">3:00</text>
<line x1="804.0" y1="330.0" x2="804.0" y2="335.0" stroke="#787b86" stroke-width="1"/>
<text x="804.0" y="350.0" fill="#787b86" font-size="9.5" text-anchor="middle">3:30</text>
<path d="M76.0,92.0 L94.2,93.7 L112.4,95.4 L130.6,97.2 L148.8,99.0 L167.0,101.0 L185.2,103.0 L203.4,105.2 L221.6,107.5 L239.8,110.0 L258.0,112.7 L276.2,115.6 L294.4,118.6 L312.6,121.9 L330.8,125.4 L349.0,129.1 L367.2,133.1 L385.4,137.3 L403.6,141.8 L421.8,146.6 L440.0,151.7 L458.2,157.1 L476.4,162.8 L494.6,168.8 L512.8,175.1 L531.0,181.8 L549.2,188.9 L567.4,196.3 L585.6,204.1 L603.8,212.2 L622.0,220.8 L640.2,229.8 L658.4,239.1 L676.6,248.9 L694.8,259.1 L713.0,269.8 L731.2,280.9 L749.4,292.5 L767.6,304.5 L785.8,317.0 L804.0,330.0" stroke="#f23645" stroke-width="2.8" fill="none"/>
<line x1="614.7" y1="92.0" x2="614.7" y2="330.0" stroke="#f0b90b" stroke-width="1.4" stroke-dasharray="5 4"/>
<text x="620.7" y="108.0" fill="#f0b90b" font-size="11" font-weight="600">~2:30pm: decay accelerates</text>
<text x="136.0" y="132.0" fill="#787b86" font-size="10.5">slow bleed early →</text>
<text x="430.0" y="408" fill="#787b86" font-size="11.5" text-anchor="middle">Buying weeklies into the expiry-day close fights theta — a late OR break must move fast or it bleeds.</text>
</svg>