<svg xmlns="http://www.w3.org/2000/svg" viewBox="0 0 860 460" font-family="Segoe UI,Arial,sans-serif">
<rect width="860" height="460" rx="12" fill="#131722"/>
<line x1="26" y1="58" x2="834" y2="58" stroke="#1b2230" stroke-width="1"/>
<line x1="26" y1="98" x2="834" y2="98" stroke="#1b2230" stroke-width="1"/>
<line x1="26" y1="138" x2="834" y2="138" stroke="#1b2230" stroke-width="1"/>
<line x1="26" y1="178" x2="834" y2="178" stroke="#1b2230" stroke-width="1"/>
<line x1="26" y1="218" x2="834" y2="218" stroke="#1b2230" stroke-width="1"/>
<line x1="26" y1="258" x2="834" y2="258" stroke="#1b2230" stroke-width="1"/>
<line x1="26" y1="298" x2="834" y2="298" stroke="#1b2230" stroke-width="1"/>
<line x1="26" y1="338" x2="834" y2="338" stroke="#1b2230" stroke-width="1"/>
<line x1="26" y1="378" x2="834" y2="378" stroke="#1b2230" stroke-width="1"/>
<text x="26" y="28" fill="#d1d4dc" font-size="19" font-weight="700">Narrow vs Wide Initial Balance</text>
<text x="26" y="47" fill="#787b86" font-size="12.5">Narrow IB (tight first hour) = breakout-prone &amp; trends · Wide IB (large first hour) = rotation / fade</text>
<rect x="51.4" y="318.7" width="419.3" height="54.6" fill="rgba(240,185,15,0.12)" stroke="#089981" stroke-width="1.1" stroke-dasharray="4 3" opacity="1" rx="2"></rect>
<text x="56.4" y="332.7" fill="#089981" font-size="11" font-weight="600" opacity="1">NARROW IB → energy stored</text>
<line x1="26.0" y1="318.7" x2="834.0" y2="318.7" stroke="#f0b90b" stroke-width="1.6" stroke-dasharray="True" opacity="1"></line>
<text x="29.0" y="313.7" fill="#f0b90b" font-size="11" font-weight="600" text-anchor="start" opacity="1">narrow IB high</text>
<line x1="26.0" y1="373.3" x2="834.0" y2="373.3" stroke="#787b86" stroke-width="1.2" stroke-dasharray="True" opacity="1"></line>
<text x="29.0" y="368.3" fill="#787b86" font-size="11" font-weight="600" text-anchor="start" opacity="1">narrow IB low</text>
<path d="M518.1,291.4 L738.5,114.0" stroke="#089981" stroke-width="2.6" fill="none" stroke-dasharray="" marker-end="url(#bar_089981)" opacity="1"></path>
<text x="628.3" y="196.7" fill="#089981" font-size="10.5" font-weight="600" text-anchor="middle" opacity="1">narrow IB → break trends</text>
<defs>
<marker id="bar_089981" markerWidth="9" markerHeight="9" refX="6" refY="4.5" orient="auto"><path d="M0,0 L9,4.5 L0,9 z" fill="#089981"/></marker>
</defs>
<text x="430.0" y="92.4" fill="#f23645" font-size="10.5" font-weight="500" text-anchor="middle" opacity="1">WIDE IB (large first hour): range already used the day's energy → expect rotation / fade the edges</text>
<line x1="77.4" y1="332.4" x2="77.4" y2="373.3" stroke="#b2b5be" stroke-width="1.5" opacity="1"></line>
<rect x="64.4" y="346.0" width="26.0" height="13.7" rx="1.5" fill="#089981" stroke="#089981" opacity="1"></rect>
<line x1="150.9" y1="318.7" x2="150.9" y2="359.7" stroke="#b2b5be" stroke-width="1.5" opacity="1"></line>
<rect x="137.9" y="332.4" width="26.0" height="13.7" rx="1.5" fill="#089981" stroke="#089981" opacity="1"></rect>
<line x1="224.3" y1="318.7" x2="224.3" y2="359.7" stroke="#b2b5be" stroke-width="1.5" opacity="1"></line>
<rect x="211.3" y="332.4" width="26.0" height="13.7" rx="1.5" fill="#f23645" stroke="#f23645" opacity="1"></rect>
<line x1="297.8" y1="318.7" x2="297.8" y2="359.7" stroke="#b2b5be" stroke-width="1.5" opacity="1"></line>
<rect x="284.8" y="332.4" width="26.0" height="13.7" rx="1.5" fill="#089981" stroke="#089981" opacity="1"></rect>
<line x1="371.2" y1="318.7" x2="371.2" y2="346.0" stroke="#b2b5be" stroke-width="1.5" opacity="1"></line>
<rect x="358.2" y="332.4" width="26.0" height="2.0" rx="1.5" fill="#089981" stroke="#089981" opacity="1"></rect>
<line x1="444.7" y1="305.1" x2="444.7" y2="346.0" stroke="#b2b5be" stroke-width="1.5" opacity="1"></line>
<rect x="431.7" y="318.7" width="26.0" height="13.7" rx="1.5" fill="#089981" stroke="#089981" opacity="1"></rect>
<line x1="518.1" y1="250.5" x2="518.1" y2="332.4" stroke="#b2b5be" stroke-width="1.5" opacity="1"></line>
<rect x="505.1" y="264.1" width="26.0" height="54.6" rx="1.5" fill="#089981" stroke="#089981" opacity="1"></rect>
<line x1="591.6" y1="195.9" x2="591.6" y2="277.8" stroke="#b2b5be" stroke-width="1.5" opacity="1"></line>
<rect x="578.6" y="209.5" width="26.0" height="54.6" rx="1.5" fill="#089981" stroke="#089981" opacity="1"></rect>
<line x1="665.1" y1="141.3" x2="665.1" y2="223.2" stroke="#b2b5be" stroke-width="1.5" opacity="1"></line>
<rect x="652.1" y="154.9" width="26.0" height="54.6" rx="1.5" fill="#089981" stroke="#089981" opacity="1"></rect>
<line x1="738.5" y1="86.7" x2="738.5" y2="168.6" stroke="#b2b5be" stroke-width="1.5" opacity="1"></line>
<rect x="725.5" y="100.3" width="26.0" height="54.6" rx="1.5" fill="#089981" stroke="#089981" opacity="1"></rect>
<text x="430.0" y="446" fill="#787b86" font-size="12" text-anchor="middle">Tight first-hour range stores energy for a clean break; a wide IB has already spent it → mean-revert.</text>
</svg>