<svg xmlns="http://www.w3.org/2000/svg" viewBox="0 0 860 460" font-family="Segoe UI,Arial,sans-serif">
<rect width="860" height="460" rx="12" fill="#131722"/>
<line x1="26" y1="58" x2="674" y2="58" stroke="#1b2230" stroke-width="1"/>
<line x1="26" y1="98" x2="674" y2="98" stroke="#1b2230" stroke-width="1"/>
<line x1="26" y1="138" x2="674" y2="138" stroke="#1b2230" stroke-width="1"/>
<line x1="26" y1="178" x2="674" y2="178" stroke="#1b2230" stroke-width="1"/>
<line x1="26" y1="218" x2="674" y2="218" stroke="#1b2230" stroke-width="1"/>
<line x1="26" y1="258" x2="674" y2="258" stroke="#1b2230" stroke-width="1"/>
<line x1="26" y1="298" x2="674" y2="298" stroke="#1b2230" stroke-width="1"/>
<line x1="26" y1="338" x2="674" y2="338" stroke="#1b2230" stroke-width="1"/>
<line x1="26" y1="378" x2="674" y2="378" stroke="#1b2230" stroke-width="1"/>
<text x="26" y="28" fill="#d1d4dc" font-size="19" font-weight="700">ORB Lifecycle</text>
<text x="26" y="47" fill="#787b86" font-size="12.5">Opening range (9:15–9:30) → break above → shallow retest holds → run to target</text>
<rect x="32.4" y="277.8" width="190.9" height="95.6" fill="rgba(240,185,15,0.12)" stroke="#787b86" stroke-width="1.1" stroke-dasharray="4 3" opacity="1" rx="2"></rect>
<text x="37.4" y="291.8" fill="#787b86" font-size="11" font-weight="600" opacity="1">Opening Range (first 15m)</text>
<rect x="402.7" y="235.3" width="98.3" height="42.5" fill="rgba(8,153,129,0.13)" stroke="#089981" stroke-width="1.1" stroke-dasharray="" opacity="1" rx="2"></rect>
<text x="407.7" y="249.3" fill="#089981" font-size="11" font-weight="600" opacity="1">retest holds</text>
<line x1="26.0" y1="277.8" x2="674.0" y2="277.8" stroke="#f0b90b" stroke-width="1.6" stroke-dasharray="True" opacity="1"></line>
<text x="29.0" y="272.8" fill="#f0b90b" font-size="11" font-weight="600" text-anchor="start" opacity="1">OR high (break level)</text>
<line x1="26.0" y1="373.3" x2="674.0" y2="373.3" stroke="#787b86" stroke-width="1.2" stroke-dasharray="True" opacity="1"></line>
<text x="29.0" y="368.3" fill="#787b86" font-size="11" font-weight="600" text-anchor="start" opacity="1">OR low</text>
<path d="M382.4,309.6 L382.4,224.7" stroke="#089981" stroke-width="2.8" fill="none" stroke-dasharray="" marker-end="url(#bar_089981)" opacity="1"></path>
<text x="382.4" y="281.2" fill="#089981" font-size="10.5" font-weight="600" text-anchor="middle" opacity="1">ORB break</text>
<path d="M567.5,171.6 L595.3,107.9" stroke="#089981" stroke-width="2.6" fill="none" stroke-dasharray="" marker-end="url(#bar_089981)" opacity="1"></path>
<text x="581.4" y="151.8" fill="#089981" font-size="10.5" font-weight="600" text-anchor="middle" opacity="1">run</text>
<defs>
<marker id="bar_089981" markerWidth="9" markerHeight="9" refX="6" refY="4.5" orient="auto"><path d="M0,0 L9,4.5 L0,9 z" fill="#089981"/></marker>
</defs>
<text x="350.0" y="78.6" fill="#d1d4dc" font-size="11.5" font-weight="600" text-anchor="middle" opacity="1">① OR forms  ② break + close  ③ retest holds  ④ run to target</text>
<line x1="58.4" y1="299.0" x2="58.4" y2="362.7" stroke="#b2b5be" stroke-width="1.5" opacity="1"></line>
<rect x="45.4" y="309.6" width="26.0" height="42.5" rx="1.5" fill="#089981" stroke="#089981" opacity="1"></rect>
<line x1="104.7" y1="288.4" x2="104.7" y2="373.3" stroke="#b2b5be" stroke-width="1.5" opacity="1"></line>
<rect x="91.7" y="309.6" width="26.0" height="53.1" rx="1.5" fill="#f23645" stroke="#f23645" opacity="1"></rect>
<line x1="151.0" y1="288.4" x2="151.0" y2="373.3" stroke="#b2b5be" stroke-width="1.5" opacity="1"></line>
<rect x="138.0" y="299.0" width="26.0" height="63.7" rx="1.5" fill="#089981" stroke="#089981" opacity="1"></rect>
<line x1="197.3" y1="277.8" x2="197.3" y2="352.1" stroke="#b2b5be" stroke-width="1.5" opacity="1"></line>
<rect x="184.3" y="299.0" width="26.0" height="42.5" rx="1.5" fill="#f23645" stroke="#f23645" opacity="1"></rect>
<line x1="243.5" y1="288.4" x2="243.5" y2="352.1" stroke="#b2b5be" stroke-width="1.5" opacity="1"></line>
<rect x="230.5" y="299.0" width="26.0" height="42.5" rx="1.5" fill="#089981" stroke="#089981" opacity="1"></rect>
<line x1="289.8" y1="277.8" x2="289.8" y2="330.9" stroke="#b2b5be" stroke-width="1.5" opacity="1"></line>
<rect x="276.8" y="299.0" width="26.0" height="21.2" rx="1.5" fill="#f23645" stroke="#f23645" opacity="1"></rect>
<line x1="336.1" y1="267.2" x2="336.1" y2="330.9" stroke="#b2b5be" stroke-width="1.5" opacity="1"></line>
<rect x="323.1" y="277.8" width="26.0" height="42.5" rx="1.5" fill="#089981" stroke="#089981" opacity="1"></rect>
<line x1="382.4" y1="203.5" x2="382.4" y2="288.4" stroke="#b2b5be" stroke-width="1.5" opacity="1"></line>
<rect x="369.4" y="214.1" width="26.0" height="63.7" rx="1.5" fill="#089981" stroke="#089981" opacity="1"></rect>
<line x1="428.7" y1="192.8" x2="428.7" y2="245.9" stroke="#b2b5be" stroke-width="1.5" opacity="1"></line>
<rect x="415.7" y="214.1" width="26.0" height="21.2" rx="1.5" fill="#f23645" stroke="#f23645" opacity="1"></rect>
<line x1="475.0" y1="203.5" x2="475.0" y2="277.8" stroke="#b2b5be" stroke-width="1.5" opacity="1"></line>
<rect x="462.0" y="224.7" width="26.0" height="10.6" rx="1.5" fill="#089981" stroke="#089981" opacity="1"></rect>
<line x1="521.3" y1="171.6" x2="521.3" y2="235.3" stroke="#b2b5be" stroke-width="1.5" opacity="1"></line>
<rect x="508.3" y="182.2" width="26.0" height="42.5" rx="1.5" fill="#089981" stroke="#089981" opacity="1"></rect>
<line x1="567.5" y1="129.1" x2="567.5" y2="192.8" stroke="#b2b5be" stroke-width="1.5" opacity="1"></line>
<rect x="554.5" y="139.8" width="26.0" height="42.5" rx="1.5" fill="#089981" stroke="#089981" opacity="1"></rect>
<line x1="613.8" y1="86.7" x2="613.8" y2="150.4" stroke="#b2b5be" stroke-width="1.5" opacity="1"></line>
<rect x="600.8" y="97.3" width="26.0" height="42.5" rx="1.5" fill="#089981" stroke="#089981" opacity="1"></rect>
<line x1="694.0" y1="224.7" x2="752.0" y2="224.7" stroke="#2962ff" stroke-width="2"/>
<text x="756.0" y="228.7" fill="#2962ff" font-size="10.5" font-weight="700">Entry</text>
<line x1="694.0" y1="288.4" x2="752.0" y2="288.4" stroke="#f23645" stroke-width="2"/>
<text x="756.0" y="292.4" fill="#f23645" font-size="10.5" font-weight="700">SL</text>
<line x1="694.0" y1="139.8" x2="752.0" y2="139.8" stroke="#089981" stroke-width="2"/>
<text x="756.0" y="143.8" fill="#089981" font-size="10.5" font-weight="500">T1 (1.3R)</text>
<line x1="694.0" y1="86.7" x2="752.0" y2="86.7" stroke="#089981" stroke-width="2"/>
<text x="756.0" y="90.7" fill="#089981" font-size="10.5" font-weight="500">T2 (2.2R)</text>
<rect x="694.0" y="224.7" width="56" height="63.7" fill="rgba(242,54,69,0.13)"/>
<rect x="694.0" y="139.8" width="56" height="84.9" fill="rgba(8,153,129,0.13)"/>
<text x="430.0" y="446" fill="#787b86" font-size="12" text-anchor="middle">The whole game: did the break ACCEPT beyond the OR (real) or get REJECTED back in (trap)?</text>
</svg>