<svg xmlns="http://www.w3.org/2000/svg" viewBox="0 0 860 460" font-family="Segoe UI,Arial,sans-serif">
<rect width="860" height="460" rx="12" fill="#131722"/>
<line x1="26" y1="58" x2="834" y2="58" stroke="#1b2230" stroke-width="1"/>
<line x1="26" y1="98" x2="834" y2="98" stroke="#1b2230" stroke-width="1"/>
<line x1="26" y1="138" x2="834" y2="138" stroke="#1b2230" stroke-width="1"/>
<line x1="26" y1="178" x2="834" y2="178" stroke="#1b2230" stroke-width="1"/>
<line x1="26" y1="218" x2="834" y2="218" stroke="#1b2230" stroke-width="1"/>
<line x1="26" y1="258" x2="834" y2="258" stroke="#1b2230" stroke-width="1"/>
<line x1="26" y1="298" x2="834" y2="298" stroke="#1b2230" stroke-width="1"/>
<line x1="26" y1="338" x2="834" y2="338" stroke="#1b2230" stroke-width="1"/>
<line x1="26" y1="378" x2="834" y2="378" stroke="#1b2230" stroke-width="1"/>
<text x="26" y="28" fill="#d1d4dc" font-size="19" font-weight="700">Retest Shrinks the Stop</text>
<text x="26" y="47" fill="#787b86" font-size="12.5">Chasing the break = wide SL (entry 62 → OR-low 48 ≈ 14 pt) vs retest entry = tight SL (57 → 54 ≈ 3 pt)</text>
<rect x="451.1" y="237.5" width="119.3" height="45.3" fill="rgba(8,153,129,0.13)" stroke="#089981" stroke-width="1.1" stroke-dasharray="" opacity="1" rx="2"></rect>
<text x="456.1" y="251.5" fill="#089981" font-size="11" font-weight="600" opacity="1">retest entry</text>
<line x1="26.0" y1="282.8" x2="834.0" y2="282.8" stroke="#f0b90b" stroke-width="1.6" stroke-dasharray="True" opacity="1"></line>
<text x="29.0" y="277.8" fill="#f0b90b" font-size="11" font-weight="600" text-anchor="start" opacity="1">OR high → reclaimed</text>
<line x1="26.0" y1="373.3" x2="834.0" y2="373.3" stroke="#f23645" stroke-width="1.6" stroke-dasharray="True" opacity="1"></line>
<text x="29.0" y="368.3" fill="#f23645" font-size="11" font-weight="600" text-anchor="start" opacity="1">OR low (chaser's SL)</text>
<path d="M409.8,222.5 L409.8,162.1" stroke="#787b86" stroke-width="2.2" fill="none" stroke-dasharray="" marker-end="url(#bar_787b86)" opacity="1"></path>
<text x="409.8" y="184.3" fill="#787b86" font-size="10.5" font-weight="600" text-anchor="middle" opacity="1">chase entry ≈ 62</text>
<path d="M443.5,162.1 L443.5,358.2" stroke="#f23645" stroke-width="1.6" fill="none" stroke-dasharray="4 3" marker-end="url(#bar_f23645)" opacity="1"></path>
<text x="443.5" y="262.2" fill="#f23645" font-size="10.5" font-weight="600" text-anchor="middle" opacity="1">wide SL ≈ 14 pt</text>
<path d="M544.5,237.5 L611.8,162.1" stroke="#089981" stroke-width="2.6" fill="none" stroke-dasharray="" marker-end="url(#bar_089981)" opacity="1"></path>
<text x="578.1" y="191.8" fill="#089981" font-size="10.5" font-weight="600" text-anchor="middle" opacity="1">retest entry ≈ 57</text>
<path d="M578.1,237.5 L578.1,282.8" stroke="#26c6da" stroke-width="1.6" fill="none" stroke-dasharray="4 3" marker-end="url(#bar_26c6da)" opacity="1"></path>
<text x="578.1" y="262.2" fill="#26c6da" font-size="10.5" font-weight="600" text-anchor="middle" opacity="1">tight SL ≈ 3 pt</text>
<defs>
<marker id="bar_26c6da" markerWidth="9" markerHeight="9" refX="6" refY="4.5" orient="auto"><path d="M0,0 L9,4.5 L0,9 z" fill="#26c6da"/></marker>
<marker id="bar_f23645" markerWidth="9" markerHeight="9" refX="6" refY="4.5" orient="auto"><path d="M0,0 L9,4.5 L0,9 z" fill="#f23645"/></marker>
<marker id="bar_787b86" markerWidth="9" markerHeight="9" refX="6" refY="4.5" orient="auto"><path d="M0,0 L9,4.5 L0,9 z" fill="#787b86"/></marker>
<marker id="bar_089981" markerWidth="9" markerHeight="9" refX="6" refY="4.5" orient="auto"><path d="M0,0 L9,4.5 L0,9 z" fill="#089981"/></marker>
</defs>
<line x1="73.1" y1="297.9" x2="73.1" y2="358.2" stroke="#b2b5be" stroke-width="1.5" opacity="1"></line>
<rect x="60.1" y="313.0" width="26.0" height="30.2" rx="1.5" fill="#089981" stroke="#089981" opacity="1"></rect>
<line x1="140.5" y1="282.8" x2="140.5" y2="373.3" stroke="#b2b5be" stroke-width="1.5" opacity="1"></line>
<rect x="127.5" y="313.0" width="26.0" height="45.3" rx="1.5" fill="#f23645" stroke="#f23645" opacity="1"></rect>
<line x1="207.8" y1="282.8" x2="207.8" y2="373.3" stroke="#b2b5be" stroke-width="1.5" opacity="1"></line>
<rect x="194.8" y="297.9" width="26.0" height="60.4" rx="1.5" fill="#089981" stroke="#089981" opacity="1"></rect>
<line x1="275.1" y1="267.7" x2="275.1" y2="343.2" stroke="#b2b5be" stroke-width="1.5" opacity="1"></line>
<rect x="262.1" y="297.9" width="26.0" height="30.2" rx="1.5" fill="#f23645" stroke="#f23645" opacity="1"></rect>
<line x1="342.5" y1="267.7" x2="342.5" y2="343.2" stroke="#b2b5be" stroke-width="1.5" opacity="1"></line>
<rect x="329.5" y="282.8" width="26.0" height="45.3" rx="1.5" fill="#089981" stroke="#089981" opacity="1"></rect>
<line x1="409.8" y1="147.0" x2="409.8" y2="297.9" stroke="#b2b5be" stroke-width="1.5" opacity="1"></line>
<rect x="396.8" y="162.1" width="26.0" height="120.7" rx="1.5" fill="#089981" stroke="#089981" opacity="1"></rect>
<line x1="477.1" y1="131.9" x2="477.1" y2="192.3" stroke="#b2b5be" stroke-width="1.5" opacity="1"></line>
<rect x="464.1" y="162.1" width="26.0" height="15.1" rx="1.5" fill="#f23645" stroke="#f23645" opacity="1"></rect>
<line x1="544.5" y1="147.0" x2="544.5" y2="252.6" stroke="#b2b5be" stroke-width="1.5" opacity="1"></line>
<rect x="531.5" y="177.2" width="26.0" height="60.4" rx="1.5" fill="#f23645" stroke="#f23645" opacity="1"></rect>
<line x1="611.8" y1="207.4" x2="611.8" y2="267.7" stroke="#b2b5be" stroke-width="1.5" opacity="1"></line>
<rect x="598.8" y="222.5" width="26.0" height="15.1" rx="1.5" fill="#089981" stroke="#089981" opacity="1"></rect>
<line x1="679.1" y1="147.0" x2="679.1" y2="237.5" stroke="#b2b5be" stroke-width="1.5" opacity="1"></line>
<rect x="666.1" y="162.1" width="26.0" height="60.4" rx="1.5" fill="#089981" stroke="#089981" opacity="1"></rect>
<line x1="746.5" y1="86.7" x2="746.5" y2="177.2" stroke="#b2b5be" stroke-width="1.5" opacity="1"></line>
<rect x="733.5" y="101.8" width="26.0" height="60.4" rx="1.5" fill="#089981" stroke="#089981" opacity="1"></rect>
<text x="430.0" y="446" fill="#787b86" font-size="12" text-anchor="middle">Same trade, same target — the retest cuts the stop ~4–5× → far better R and survivable size.</text>
</svg>