<svg xmlns="http://www.w3.org/2000/svg" viewBox="0 0 860 460" font-family="Segoe UI,Arial,sans-serif">
<rect width="860" height="460" rx="12" fill="#131722"/>
<line x1="26" y1="58" x2="834" y2="58" stroke="#1b2230" stroke-width="1"/>
<line x1="26" y1="98" x2="834" y2="98" stroke="#1b2230" stroke-width="1"/>
<line x1="26" y1="138" x2="834" y2="138" stroke="#1b2230" stroke-width="1"/>
<line x1="26" y1="178" x2="834" y2="178" stroke="#1b2230" stroke-width="1"/>
<line x1="26" y1="218" x2="834" y2="218" stroke="#1b2230" stroke-width="1"/>
<line x1="26" y1="258" x2="834" y2="258" stroke="#1b2230" stroke-width="1"/>
<line x1="26" y1="298" x2="834" y2="298" stroke="#1b2230" stroke-width="1"/>
<text x="26" y="28" fill="#d1d4dc" font-size="19" font-weight="700">ORB + VWAP / Volume Confluence</text>
<text x="26" y="47" fill="#787b86" font-size="12.5">A-grade ORB breaks on the RIGHT side of VWAP with volume EXPANSION on the break candle</text>
<rect x="43.5" y="203.5" width="238.5" height="91.0" fill="rgba(240,185,15,0.12)" stroke="#787b86" stroke-width="1.1" stroke-dasharray="4 3" opacity="1" rx="2"></rect>
<text x="48.5" y="217.5" fill="#787b86" font-size="11" font-weight="600" opacity="1">Opening Range</text>
<rect x="540.7" y="170.5" width="114.2" height="33.1" fill="rgba(8,153,129,0.13)" stroke="#089981" stroke-width="1.1" stroke-dasharray="" opacity="1" rx="2"></rect>
<text x="545.7" y="184.5" fill="#089981" font-size="11" font-weight="600" opacity="1">retest above VWAP</text>
<path d="M69.5,261.4 L193.8,253.2 L318.1,244.9 L442.4,236.6 L566.7,220.1 L691.0,195.3 L753.2,170.5" stroke="#9c27b0" stroke-width="2.2" fill="none" stroke-dasharray="" opacity="1"></path>
<text x="757.2" y="166.5" fill="#9c27b0" font-size="10.5" font-weight="600" opacity="1">VWAP</text>
<line x1="26.0" y1="203.5" x2="834.0" y2="203.5" stroke="#f0b90b" stroke-width="1.6" stroke-dasharray="True" opacity="1"></line>
<text x="29.0" y="198.5" fill="#f0b90b" font-size="11" font-weight="600" text-anchor="start" opacity="1">OR high (break level)</text>
<line x1="26.0" y1="294.5" x2="834.0" y2="294.5" stroke="#787b86" stroke-width="1.2" stroke-dasharray="True" opacity="1"></line>
<text x="29.0" y="289.5" fill="#787b86" font-size="11" font-weight="600" text-anchor="start" opacity="1">OR low</text>
<path d="M504.6,220.1 L504.6,153.9" stroke="#089981" stroke-width="2.8" fill="none" stroke-dasharray="" marker-end="url(#bar_089981)" opacity="1"></path>
<text x="504.6" y="181.0" fill="#089981" font-size="10.5" font-weight="600" text-anchor="middle" opacity="1">break (right side of VWAP)</text>
<defs>
<marker id="bar_089981" markerWidth="9" markerHeight="9" refX="6" refY="4.5" orient="auto"><path d="M0,0 L9,4.5 L0,9 z" fill="#089981"/></marker>
</defs>
<line x1="69.5" y1="228.3" x2="69.5" y2="294.5" stroke="#b2b5be" stroke-width="1.5" opacity="1"></line>
<rect x="56.5" y="236.6" width="26.0" height="24.8" rx="1.5" fill="#089981" stroke="#089981" opacity="1"></rect>
<line x1="131.7" y1="220.1" x2="131.7" y2="269.7" stroke="#b2b5be" stroke-width="1.5" opacity="1"></line>
<rect x="118.7" y="236.6" width="26.0" height="24.8" rx="1.5" fill="#f23645" stroke="#f23645" opacity="1"></rect>
<line x1="193.8" y1="211.8" x2="193.8" y2="278.0" stroke="#b2b5be" stroke-width="1.5" opacity="1"></line>
<rect x="180.8" y="220.1" width="26.0" height="41.3" rx="1.5" fill="#089981" stroke="#089981" opacity="1"></rect>
<line x1="256.0" y1="203.5" x2="256.0" y2="253.2" stroke="#b2b5be" stroke-width="1.5" opacity="1"></line>
<rect x="243.0" y="220.1" width="26.0" height="24.8" rx="1.5" fill="#f23645" stroke="#f23645" opacity="1"></rect>
<line x1="318.1" y1="211.8" x2="318.1" y2="261.4" stroke="#b2b5be" stroke-width="1.5" opacity="1"></line>
<rect x="305.1" y="220.1" width="26.0" height="24.8" rx="1.5" fill="#089981" stroke="#089981" opacity="1"></rect>
<line x1="380.3" y1="203.5" x2="380.3" y2="236.6" stroke="#b2b5be" stroke-width="1.5" opacity="1"></line>
<rect x="367.3" y="220.1" width="26.0" height="8.3" rx="1.5" fill="#f23645" stroke="#f23645" opacity="1"></rect>
<line x1="442.4" y1="195.3" x2="442.4" y2="236.6" stroke="#b2b5be" stroke-width="1.5" opacity="1"></line>
<rect x="429.4" y="203.5" width="26.0" height="24.8" rx="1.5" fill="#089981" stroke="#089981" opacity="1"></rect>
<line x1="504.6" y1="145.7" x2="504.6" y2="211.8" stroke="#b2b5be" stroke-width="1.5" opacity="1"></line>
<rect x="491.6" y="153.9" width="26.0" height="49.6" rx="1.5" fill="#089981" stroke="#089981" opacity="1"></rect>
<line x1="566.7" y1="129.1" x2="566.7" y2="170.5" stroke="#b2b5be" stroke-width="1.5" opacity="1"></line>
<rect x="553.7" y="153.9" width="26.0" height="8.3" rx="1.5" fill="#f23645" stroke="#f23645" opacity="1"></rect>
<line x1="628.9" y1="137.4" x2="628.9" y2="195.3" stroke="#b2b5be" stroke-width="1.5" opacity="1"></line>
<rect x="615.9" y="153.9" width="26.0" height="8.3" rx="1.5" fill="#089981" stroke="#089981" opacity="1"></rect>
<line x1="691.0" y1="112.6" x2="691.0" y2="162.2" stroke="#b2b5be" stroke-width="1.5" opacity="1"></line>
<rect x="678.0" y="120.8" width="26.0" height="33.1" rx="1.5" fill="#089981" stroke="#089981" opacity="1"></rect>
<line x1="753.2" y1="79.5" x2="753.2" y2="129.1" stroke="#b2b5be" stroke-width="1.5" opacity="1"></line>
<rect x="740.2" y="87.8" width="26.0" height="33.1" rx="1.5" fill="#089981" stroke="#089981" opacity="1"></rect>
<text x="26" y="334" fill="#787b86" font-size="10.5">Cumulative Delta (net aggressive buy−sell)</text>
<line x1="26" y1="372.0" x2="834" y2="372.0" stroke="#1b2230" stroke-width="1"/>
<line x1="69.5" y1="370.1" x2="131.7" y2="368.1" stroke="#089981" stroke-width="2.2"/>
<line x1="131.7" y1="368.1" x2="193.8" y2="369.1" stroke="#f23645" stroke-width="2.2"/>
<line x1="193.8" y1="369.1" x2="256.0" y2="367.2" stroke="#089981" stroke-width="2.2"/>
<line x1="256.0" y1="367.2" x2="318.1" y2="368.1" stroke="#f23645" stroke-width="2.2"/>
<line x1="318.1" y1="368.1" x2="380.3" y2="369.1" stroke="#f23645" stroke-width="2.2"/>
<line x1="380.3" y1="369.1" x2="442.4" y2="364.3" stroke="#089981" stroke-width="2.2"/>
<line x1="442.4" y1="364.3" x2="504.6" y2="355.6" stroke="#089981" stroke-width="2.2"/>
<line x1="504.6" y1="355.6" x2="566.7" y2="357.6" stroke="#f23645" stroke-width="2.2"/>
<line x1="566.7" y1="357.6" x2="628.9" y2="354.7" stroke="#089981" stroke-width="2.2"/>
<line x1="628.9" y1="354.7" x2="691.0" y2="348.9" stroke="#089981" stroke-width="2.2"/>
<line x1="691.0" y1="348.9" x2="753.2" y2="343.1" stroke="#089981" stroke-width="2.2"/>
<circle cx="69.5" cy="370.1" r="2.2" fill="#089981"/>
<circle cx="131.7" cy="368.1" r="2.2" fill="#089981"/>
<circle cx="193.8" cy="369.1" r="2.2" fill="#089981"/>
<circle cx="256.0" cy="367.2" r="2.2" fill="#089981"/>
<circle cx="318.1" cy="368.1" r="2.2" fill="#089981"/>
<circle cx="380.3" cy="369.1" r="2.2" fill="#089981"/>
<circle cx="442.4" cy="364.3" r="2.2" fill="#089981"/>
<circle cx="504.6" cy="355.6" r="2.2" fill="#089981"/>
<circle cx="566.7" cy="357.6" r="2.2" fill="#089981"/>
<circle cx="628.9" cy="354.7" r="2.2" fill="#089981"/>
<circle cx="691.0" cy="348.9" r="2.2" fill="#089981"/>
<circle cx="753.2" cy="343.1" r="2.2" fill="#089981"/>
<text x="834" y="334" fill="#089981" font-size="10.5" font-weight="600" text-anchor="end">volume / delta EXPANDS on the break candle</text>
<text x="430.0" y="446" fill="#787b86" font-size="12" text-anchor="middle">Right side of VWAP + above-average volume on the break = the highest-quality ORB filter.</text>
</svg>