<svg xmlns="http://www.w3.org/2000/svg" viewBox="0 0 860 460" font-family="Segoe UI,Arial,sans-serif">
<rect width="860" height="460" rx="12" fill="#131722"/>
<line x1="26" y1="58" x2="834" y2="58" stroke="#1b2230" stroke-width="1"/>
<line x1="26" y1="98" x2="834" y2="98" stroke="#1b2230" stroke-width="1"/>
<line x1="26" y1="138" x2="834" y2="138" stroke="#1b2230" stroke-width="1"/>
<line x1="26" y1="178" x2="834" y2="178" stroke="#1b2230" stroke-width="1"/>
<line x1="26" y1="218" x2="834" y2="218" stroke="#1b2230" stroke-width="1"/>
<line x1="26" y1="258" x2="834" y2="258" stroke="#1b2230" stroke-width="1"/>
<line x1="26" y1="298" x2="834" y2="298" stroke="#1b2230" stroke-width="1"/>
<text x="26" y="28" fill="#d1d4dc" font-size="19" font-weight="700">ORB: Real Break vs Trap</text>
<text x="26" y="47" fill="#787b86" font-size="12.5">Real = conviction close + value accepts + delta EXPANDS · Trap = poke, long wick, close back in, delta ROLLS OVER</text>
<line x1="73.1" y1="235.9" x2="73.1" y2="284.7" stroke="#b2b5be" stroke-width="1.5" opacity="0"><animate attributeName="opacity" from="0" to="1" begin="0.00s" dur="0.30s" fill="freeze"/></line>
<rect x="60.1" y="245.6" width="26.0" height="29.3" rx="1.5" fill="#089981" stroke="#089981" opacity="0"><animate attributeName="opacity" from="0" to="1" begin="0.00s" dur="0.30s" fill="freeze"/></rect>
<line x1="140.5" y1="226.1" x2="140.5" y2="294.5" stroke="#b2b5be" stroke-width="1.5" opacity="0"><animate attributeName="opacity" from="0" to="1" begin="0.18s" dur="0.30s" fill="freeze"/></line>
<rect x="127.5" y="245.6" width="26.0" height="39.1" rx="1.5" fill="#f23645" stroke="#f23645" opacity="0"><animate attributeName="opacity" from="0" to="1" begin="0.18s" dur="0.30s" fill="freeze"/></rect>
<line x1="207.8" y1="226.1" x2="207.8" y2="294.5" stroke="#b2b5be" stroke-width="1.5" opacity="0"><animate attributeName="opacity" from="0" to="1" begin="0.36s" dur="0.30s" fill="freeze"/></line>
<rect x="194.8" y="235.9" width="26.0" height="48.9" rx="1.5" fill="#089981" stroke="#089981" opacity="0"><animate attributeName="opacity" from="0" to="1" begin="0.36s" dur="0.30s" fill="freeze"/></rect>
<line x1="275.1" y1="216.3" x2="275.1" y2="275.0" stroke="#b2b5be" stroke-width="1.5" opacity="0"><animate attributeName="opacity" from="0" to="1" begin="0.54s" dur="0.30s" fill="freeze"/></line>
<rect x="262.1" y="235.9" width="26.0" height="29.3" rx="1.5" fill="#f23645" stroke="#f23645" opacity="0"><animate attributeName="opacity" from="0" to="1" begin="0.54s" dur="0.30s" fill="freeze"/></rect>
<line x1="342.5" y1="226.1" x2="342.5" y2="275.0" stroke="#b2b5be" stroke-width="1.5" opacity="0"><animate attributeName="opacity" from="0" to="1" begin="0.72s" dur="0.30s" fill="freeze"/></line>
<rect x="329.5" y="235.9" width="26.0" height="29.3" rx="1.5" fill="#089981" stroke="#089981" opacity="0"><animate attributeName="opacity" from="0" to="1" begin="0.72s" dur="0.30s" fill="freeze"/></rect>
<line x1="409.8" y1="216.3" x2="409.8" y2="255.4" stroke="#b2b5be" stroke-width="1.5" opacity="0"><animate attributeName="opacity" from="0" to="1" begin="0.90s" dur="0.30s" fill="freeze"/></line>
<rect x="396.8" y="235.9" width="26.0" height="9.8" rx="1.5" fill="#f23645" stroke="#f23645" opacity="0"><animate attributeName="opacity" from="0" to="1" begin="0.90s" dur="0.30s" fill="freeze"/></rect>
<line x1="477.1" y1="206.5" x2="477.1" y2="255.4" stroke="#b2b5be" stroke-width="1.5" opacity="0"><animate attributeName="opacity" from="0" to="1" begin="1.08s" dur="0.30s" fill="freeze"/></line>
<rect x="464.1" y="216.3" width="26.0" height="29.3" rx="1.5" fill="#089981" stroke="#089981" opacity="0"><animate attributeName="opacity" from="0" to="1" begin="1.08s" dur="0.30s" fill="freeze"/></rect>
<line x1="544.5" y1="138.1" x2="544.5" y2="226.1" stroke="#b2b5be" stroke-width="1.5" opacity="0"><animate attributeName="opacity" from="0" to="1" begin="1.26s" dur="0.30s" fill="freeze"/></line>
<rect x="531.5" y="147.9" width="26.0" height="68.4" rx="1.5" fill="#089981" stroke="#089981" opacity="0"><animate attributeName="opacity" from="0" to="1" begin="1.26s" dur="0.30s" fill="freeze"/></rect>
<line x1="611.8" y1="118.6" x2="611.8" y2="157.7" stroke="#b2b5be" stroke-width="1.5" opacity="0"><animate attributeName="opacity" from="0" to="1" begin="1.44s" dur="0.30s" fill="freeze"/></line>
<rect x="598.8" y="128.4" width="26.0" height="19.5" rx="1.5" fill="#089981" stroke="#089981" opacity="0"><animate attributeName="opacity" from="0" to="1" begin="1.44s" dur="0.30s" fill="freeze"/></rect>
<line x1="679.1" y1="99.0" x2="679.1" y2="138.1" stroke="#b2b5be" stroke-width="1.5" opacity="0"><animate attributeName="opacity" from="0" to="1" begin="1.62s" dur="0.30s" fill="freeze"/></line>
<rect x="666.1" y="108.8" width="26.0" height="19.5" rx="1.5" fill="#089981" stroke="#089981" opacity="0"><animate attributeName="opacity" from="0" to="1" begin="1.62s" dur="0.30s" fill="freeze"/></rect>
<line x1="746.5" y1="79.5" x2="746.5" y2="118.6" stroke="#b2b5be" stroke-width="1.5" opacity="0"><animate attributeName="opacity" from="0" to="1" begin="1.80s" dur="0.30s" fill="freeze"/></line>
<rect x="733.5" y="89.3" width="26.0" height="19.5" rx="1.5" fill="#089981" stroke="#089981" opacity="0"><animate attributeName="opacity" from="0" to="1" begin="1.80s" dur="0.30s" fill="freeze"/></rect>
<rect x="47.1" y="226.1" width="254.0" height="68.4" fill="rgba(240,185,15,0.12)" stroke="#787b86" stroke-width="1.1" stroke-dasharray="4 3" opacity="0" rx="2"><animate attributeName="opacity" from="0" to="1" begin="2.18s" dur="0.4s" fill="freeze"/></rect>
<text x="52.1" y="240.1" fill="#787b86" font-size="11" font-weight="600" opacity="0">Opening Range<animate attributeName="opacity" from="0" to="1" begin="2.18s" dur="0.4s" fill="freeze"/></text>
<line x1="26.0" y1="226.1" x2="834.0" y2="226.1" stroke="#f0b90b" stroke-width="1.6" stroke-dasharray="True" opacity="0"><animate attributeName="opacity" from="0" to="1" begin="2.18s" dur="0.4s" fill="freeze"/></line>
<text x="29.0" y="221.1" fill="#f0b90b" font-size="11" font-weight="600" text-anchor="start" opacity="0">OR high<animate attributeName="opacity" from="0" to="1" begin="2.18s" dur="0.4s" fill="freeze"/></text>
<path d="M544.5,245.6 L544.5,157.7" stroke="#089981" stroke-width="2.8" fill="none" stroke-dasharray="" marker-end="url(#bar_089981)" opacity="0"><animate attributeName="opacity" from="0" to="1" begin="2.58s" dur="0.4s" fill="freeze"/></path>
<text x="544.5" y="217.7" fill="#089981" font-size="10.5" font-weight="600" text-anchor="middle" opacity="0">REAL: conviction close<animate attributeName="opacity" from="0" to="1" begin="2.58s" dur="0.4s" fill="freeze"/></text>
<path d="M652.2,108.8 L692.6,89.3" stroke="#089981" stroke-width="2.4" fill="none" stroke-dasharray="" marker-end="url(#bar_089981)" opacity="0"><animate attributeName="opacity" from="0" to="1" begin="2.98s" dur="0.4s" fill="freeze"/></path>
<text x="672.4" y="89.0" fill="#089981" font-size="10.5" font-weight="600" text-anchor="middle" opacity="0">value accepts → extends<animate attributeName="opacity" from="0" to="1" begin="2.98s" dur="0.4s" fill="freeze"/></text>
<defs>
<marker id="bar_089981" markerWidth="9" markerHeight="9" refX="6" refY="4.5" orient="auto"><path d="M0,0 L9,4.5 L0,9 z" fill="#089981"/></marker>
</defs>
<text x="300.7" y="89.0" fill="#f23645" font-size="10.5" font-weight="500" text-anchor="middle" opacity="0">TRAP would: poke above, long upper wick, close back INSIDE the OR, reverse<animate attributeName="opacity" from="0" to="1" begin="2.18s" dur="0.4s" fill="freeze"/></text>
<text x="26" y="334" fill="#787b86" font-size="10.5">Cumulative Delta (net aggressive buy−sell)</text>
<line x1="26" y1="372.0" x2="834" y2="372.0" stroke="#1b2230" stroke-width="1"/>
<line x1="73.1" y1="370.1" x2="140.5" y2="367.2" stroke="#089981" stroke-width="2.2"/>
<line x1="140.5" y1="367.2" x2="207.8" y2="368.1" stroke="#f23645" stroke-width="2.2"/>
<line x1="207.8" y1="368.1" x2="275.1" y2="369.1" stroke="#f23645" stroke-width="2.2"/>
<line x1="275.1" y1="369.1" x2="342.5" y2="367.2" stroke="#089981" stroke-width="2.2"/>
<line x1="342.5" y1="367.2" x2="409.8" y2="368.1" stroke="#f23645" stroke-width="2.2"/>
<line x1="409.8" y1="368.1" x2="477.1" y2="363.3" stroke="#089981" stroke-width="2.2"/>
<line x1="477.1" y1="363.3" x2="544.5" y2="356.6" stroke="#089981" stroke-width="2.2"/>
<line x1="544.5" y1="356.6" x2="611.8" y2="351.8" stroke="#089981" stroke-width="2.2"/>
<line x1="611.8" y1="351.8" x2="679.1" y2="347.0" stroke="#089981" stroke-width="2.2"/>
<line x1="679.1" y1="347.0" x2="746.5" y2="343.1" stroke="#089981" stroke-width="2.2"/>
<circle cx="73.1" cy="370.1" r="2.2" fill="#089981"/>
<circle cx="140.5" cy="367.2" r="2.2" fill="#089981"/>
<circle cx="207.8" cy="368.1" r="2.2" fill="#089981"/>
<circle cx="275.1" cy="369.1" r="2.2" fill="#089981"/>
<circle cx="342.5" cy="367.2" r="2.2" fill="#089981"/>
<circle cx="409.8" cy="368.1" r="2.2" fill="#089981"/>
<circle cx="477.1" cy="363.3" r="2.2" fill="#089981"/>
<circle cx="544.5" cy="356.6" r="2.2" fill="#089981"/>
<circle cx="611.8" cy="351.8" r="2.2" fill="#089981"/>
<circle cx="679.1" cy="347.0" r="2.2" fill="#089981"/>
<circle cx="746.5" cy="343.1" r="2.2" fill="#089981"/>
<text x="834" y="334" fill="#089981" font-size="10.5" font-weight="600" text-anchor="end">REAL: delta EXPANDS with price (trap: it ROLLS OVER)</text>
<text x="430.0" y="446" fill="#787b86" font-size="12" text-anchor="middle">On a trap, volume can spike but delta fades at the high = absorption → fade / stand aside.</text>
</svg>