<svg xmlns="http://www.w3.org/2000/svg" viewBox="0 0 860 460" font-family="Segoe UI,Arial,sans-serif">
<rect width="860" height="460" rx="12" fill="#131722"/>
<line x1="26" y1="58" x2="834" y2="58" stroke="#1b2230" stroke-width="1"/>
<line x1="26" y1="98" x2="834" y2="98" stroke="#1b2230" stroke-width="1"/>
<line x1="26" y1="138" x2="834" y2="138" stroke="#1b2230" stroke-width="1"/>
<line x1="26" y1="178" x2="834" y2="178" stroke="#1b2230" stroke-width="1"/>
<line x1="26" y1="218" x2="834" y2="218" stroke="#1b2230" stroke-width="1"/>
<line x1="26" y1="258" x2="834" y2="258" stroke="#1b2230" stroke-width="1"/>
<line x1="26" y1="298" x2="834" y2="298" stroke="#1b2230" stroke-width="1"/>
<text x="26" y="28" fill="#d1d4dc" font-size="19" font-weight="700">SWEEP-AND-REVERSE (the trade)</text>
<text x="26" y="47" fill="#787b86" font-size="12.5">Poke beyond the level → long wick → close back inside → reverse</text>
<line x1="96.7" y1="218.6" x2="96.7" y2="269.2" stroke="#b2b5be" stroke-width="1.5" opacity="0"><animate attributeName="opacity" from="0" to="1" begin="0.00s" dur="0.30s" fill="freeze"/></line>
<rect x="83.7" y="231.3" width="26.0" height="25.3" rx="1.5" fill="#089981" stroke="#089981" opacity="0"><animate attributeName="opacity" from="0" to="1" begin="0.00s" dur="0.30s" fill="freeze"/></rect>
<line x1="197.7" y1="180.7" x2="197.7" y2="243.9" stroke="#b2b5be" stroke-width="1.5" opacity="0"><animate attributeName="opacity" from="0" to="1" begin="0.18s" dur="0.30s" fill="freeze"/></line>
<rect x="184.7" y="193.3" width="26.0" height="37.9" rx="1.5" fill="#089981" stroke="#089981" opacity="0"><animate attributeName="opacity" from="0" to="1" begin="0.18s" dur="0.30s" fill="freeze"/></rect>
<line x1="298.7" y1="142.7" x2="298.7" y2="206.0" stroke="#b2b5be" stroke-width="1.5" opacity="0"><animate attributeName="opacity" from="0" to="1" begin="0.36s" dur="0.30s" fill="freeze"/></line>
<rect x="285.7" y="155.4" width="26.0" height="37.9" rx="1.5" fill="#089981" stroke="#089981" opacity="0"><animate attributeName="opacity" from="0" to="1" begin="0.36s" dur="0.30s" fill="freeze"/></rect>
<line x1="399.7" y1="79.5" x2="399.7" y2="168.0" stroke="#b2b5be" stroke-width="1.5" opacity="0"><animate attributeName="opacity" from="0" to="1" begin="0.54s" dur="0.30s" fill="freeze"/></line>
<rect x="386.7" y="142.7" width="26.0" height="12.6" rx="1.5" fill="#089981" stroke="#089981" opacity="0"><animate attributeName="opacity" from="0" to="1" begin="0.54s" dur="0.30s" fill="freeze"/></rect>
<line x1="500.7" y1="130.1" x2="500.7" y2="206.0" stroke="#b2b5be" stroke-width="1.5" opacity="0"><animate attributeName="opacity" from="0" to="1" begin="0.72s" dur="0.30s" fill="freeze"/></line>
<rect x="487.7" y="142.7" width="26.0" height="50.6" rx="1.5" fill="#f23645" stroke="#f23645" opacity="0"><animate attributeName="opacity" from="0" to="1" begin="0.72s" dur="0.30s" fill="freeze"/></rect>
<line x1="601.7" y1="168.0" x2="601.7" y2="243.9" stroke="#b2b5be" stroke-width="1.5" opacity="0"><animate attributeName="opacity" from="0" to="1" begin="0.90s" dur="0.30s" fill="freeze"/></line>
<rect x="588.7" y="193.3" width="26.0" height="37.9" rx="1.5" fill="#f23645" stroke="#f23645" opacity="0"><animate attributeName="opacity" from="0" to="1" begin="0.90s" dur="0.30s" fill="freeze"/></rect>
<line x1="702.7" y1="218.6" x2="702.7" y2="294.5" stroke="#b2b5be" stroke-width="1.5" opacity="0"><animate attributeName="opacity" from="0" to="1" begin="1.08s" dur="0.30s" fill="freeze"/></line>
<rect x="689.7" y="231.3" width="26.0" height="50.6" rx="1.5" fill="#f23645" stroke="#f23645" opacity="0"><animate attributeName="opacity" from="0" to="1" begin="1.08s" dur="0.30s" fill="freeze"/></rect>
<line x1="26.0" y1="142.7" x2="834.0" y2="142.7" stroke="#f0b90b" stroke-width="1.6" stroke-dasharray="True" opacity="0"><animate attributeName="opacity" from="0" to="1" begin="1.46s" dur="0.4s" fill="freeze"/></line>
<text x="29.0" y="137.7" fill="#f0b90b" font-size="11" font-weight="600" opacity="0">Level (equal highs = liquidity)<animate attributeName="opacity" from="0" to="1" begin="1.46s" dur="0.4s" fill="freeze"/></text>
<path d="M399.7,98.5 L399.7,136.4" stroke="#f0b90b" stroke-width="2.2" fill="none" stroke-dasharray="" marker-end="url(#bar_f0b90b)" opacity="0"><animate attributeName="opacity" from="0" to="1" begin="1.46s" dur="0.4s" fill="freeze"/></path>
<text x="399.7" y="111.4" fill="#f0b90b" font-size="10.5" font-weight="600" text-anchor="middle" opacity="0">grab stops<animate attributeName="opacity" from="0" to="1" begin="1.46s" dur="0.4s" fill="freeze"/></text>
<path d="M601.7,180.7 L702.7,281.9" stroke="#f23645" stroke-width="2.8" fill="none" stroke-dasharray="" marker-end="url(#bar_f23645)" opacity="0"><animate attributeName="opacity" from="0" to="1" begin="1.46s" dur="0.4s" fill="freeze"/></path>
<text x="652.2" y="225.3" fill="#f23645" font-size="10.5" font-weight="600" text-anchor="middle" opacity="0">trap reverses<animate attributeName="opacity" from="0" to="1" begin="1.46s" dur="0.4s" fill="freeze"/></text>
<defs>
<marker id="bar_f0b90b" markerWidth="9" markerHeight="9" refX="6" refY="4.5" orient="auto"><path d="M0,0 L9,4.5 L0,9 z" fill="#f0b90b"/></marker>
<marker id="bar_f23645" markerWidth="9" markerHeight="9" refX="6" refY="4.5" orient="auto"><path d="M0,0 L9,4.5 L0,9 z" fill="#f23645"/></marker>
</defs>
<text x="26" y="334" fill="#787b86" font-size="10.5">Cumulative Delta (net aggressive buy−sell)</text>
<line x1="26" y1="372.0" x2="834" y2="372.0" stroke="#1b2230" stroke-width="1"/>
<line x1="96.7" y1="366.7" x2="197.7" y2="358.9" stroke="#089981" stroke-width="2.2"/>
<line x1="197.7" y1="358.9" x2="298.7" y2="348.4" stroke="#089981" stroke-width="2.2"/>
<line x1="298.7" y1="348.4" x2="399.7" y2="343.1" stroke="#089981" stroke-width="2.2"/>
<line x1="399.7" y1="343.1" x2="500.7" y2="358.9" stroke="#f23645" stroke-width="2.2"/>
<line x1="500.7" y1="358.9" x2="601.7" y2="379.9" stroke="#f23645" stroke-width="2.2"/>
<line x1="601.7" y1="379.9" x2="702.7" y2="395.6" stroke="#f23645" stroke-width="2.2"/>
<circle cx="96.7" cy="366.7" r="2.2" fill="#089981"/>
<circle cx="197.7" cy="358.9" r="2.2" fill="#089981"/>
<circle cx="298.7" cy="348.4" r="2.2" fill="#089981"/>
<circle cx="399.7" cy="343.1" r="2.2" fill="#089981"/>
<circle cx="500.7" cy="358.9" r="2.2" fill="#089981"/>
<circle cx="601.7" cy="379.9" r="2.2" fill="#f23645"/>
<circle cx="702.7" cy="395.6" r="2.2" fill="#f23645"/>
<text x="834" y="334" fill="#f23645" font-size="10.5" font-weight="600" text-anchor="end">delta rolls over AT the sweep = absorption</text>
<text x="430.0" y="446" fill="#787b86" font-size="12" text-anchor="middle">Took the liquidity, FAILED to hold → the breakout buyers are trapped fuel → fade it.</text>
</svg>